G04 #@! TF.GenerationSoftware,KiCad,Pcbnew,6.0.8-f2edbf62ab~116~ubuntu22.04.1*
G04 #@! TF.CreationDate,2022-10-13T10:44:28+02:00*
G04 #@! TF.ProjectId,Floppy emulator with OSD,466c6f70-7079-4206-956d-756c61746f72,0.2*
G04 #@! TF.SameCoordinates,Original*
G04 #@! TF.FileFunction,Paste,Top*
G04 #@! TF.FilePolarity,Positive*
%FSLAX46Y46*%
G04 Gerber Fmt 4.6, Leading zero omitted, Abs format (unit mm)*
G04 Created by KiCad (PCBNEW 6.0.8-f2edbf62ab~116~ubuntu22.04.1) date 2022-10-13 10:44:28*
%MOMM*%
%LPD*%
G01*
G04 APERTURE LIST*
G04 Aperture macros list*
%AMRoundRect*
0 Rectangle with rounded corners*
0 $1 Rounding radius*
0 $2 $3 $4 $5 $6 $7 $8 $9 X,Y pos of 4 corners*
0 Add a 4 corners polygon primitive as box body*
4,1,4,$2,$3,$4,$5,$6,$7,$8,$9,$2,$3,0*
0 Add four circle primitives for the rounded corners*
1,1,$1+$1,$2,$3*
1,1,$1+$1,$4,$5*
1,1,$1+$1,$6,$7*
1,1,$1+$1,$8,$9*
0 Add four rect primitives between the rounded corners*
20,1,$1+$1,$2,$3,$4,$5,0*
20,1,$1+$1,$4,$5,$6,$7,0*
20,1,$1+$1,$6,$7,$8,$9,0*
20,1,$1+$1,$8,$9,$2,$3,0*%
%AMRotRect*
0 Rectangle, with rotation*
0 The origin of the aperture is its center*
0 $1 length*
0 $2 width*
0 $3 Rotation angle, in degrees counterclockwise*
0 Add horizontal line*
21,1,$1,$2,0,0,$3*%
G04 Aperture macros list end*
%ADD10RoundRect,0.250000X-0.250000X-0.475000X0.250000X-0.475000X0.250000X0.475000X-0.250000X0.475000X0*%
%ADD11RoundRect,0.250000X0.475000X-0.250000X0.475000X0.250000X-0.475000X0.250000X-0.475000X-0.250000X0*%
%ADD12RoundRect,0.250000X0.250000X0.475000X-0.250000X0.475000X-0.250000X-0.475000X0.250000X-0.475000X0*%
%ADD13RoundRect,0.250000X-0.475000X0.250000X-0.475000X-0.250000X0.475000X-0.250000X0.475000X0.250000X0*%
%ADD14RoundRect,0.250000X0.262500X0.450000X-0.262500X0.450000X-0.262500X-0.450000X0.262500X-0.450000X0*%
%ADD15R,0.500000X0.800000*%
%ADD16R,0.400000X0.800000*%
%ADD17RoundRect,0.075000X-0.700000X-0.075000X0.700000X-0.075000X0.700000X0.075000X-0.700000X0.075000X0*%
%ADD18RoundRect,0.075000X-0.075000X-0.700000X0.075000X-0.700000X0.075000X0.700000X-0.075000X0.700000X0*%
%ADD19RoundRect,0.150000X-0.512500X-0.150000X0.512500X-0.150000X0.512500X0.150000X-0.512500X0.150000X0*%
%ADD20RoundRect,0.075000X-0.662500X-0.075000X0.662500X-0.075000X0.662500X0.075000X-0.662500X0.075000X0*%
%ADD21RoundRect,0.075000X-0.075000X-0.662500X0.075000X-0.662500X0.075000X0.662500X-0.075000X0.662500X0*%
%ADD22RoundRect,0.150000X-0.825000X-0.150000X0.825000X-0.150000X0.825000X0.150000X-0.825000X0.150000X0*%
%ADD23RoundRect,0.250000X-0.450000X0.262500X-0.450000X-0.262500X0.450000X-0.262500X0.450000X0.262500X0*%
%ADD24RoundRect,0.250000X0.450000X-0.262500X0.450000X0.262500X-0.450000X0.262500X-0.450000X-0.262500X0*%
%ADD25RotRect,0.900000X0.800000X135.000000*%
G04 APERTURE END LIST*
D10*
X108651000Y-120205500D03*
X110551000Y-120205500D03*
D11*
X114935000Y-123266000D03*
X114935000Y-121366000D03*
D12*
X102852500Y-139700000D03*
X100952500Y-139700000D03*
D13*
X113474500Y-125415000D03*
X113474500Y-127315000D03*
D14*
X118705000Y-129159000D03*
X116880000Y-129159000D03*
D15*
X100400000Y-124725000D03*
D16*
X101200000Y-124725000D03*
X102000000Y-124725000D03*
D15*
X102800000Y-124725000D03*
X102800000Y-122925000D03*
D16*
X102000000Y-122925000D03*
X101200000Y-122925000D03*
D15*
X100400000Y-122925000D03*
X104210000Y-124725000D03*
D16*
X105010000Y-124725000D03*
X105810000Y-124725000D03*
D15*
X106610000Y-124725000D03*
X106610000Y-122925000D03*
D16*
X105810000Y-122925000D03*
X105010000Y-122925000D03*
D15*
X104210000Y-122925000D03*
D17*
X111165000Y-136585000D03*
X111165000Y-137085000D03*
X111165000Y-137585000D03*
X111165000Y-138085000D03*
X111165000Y-138585000D03*
X111165000Y-139085000D03*
X111165000Y-139585000D03*
X111165000Y-140085000D03*
X111165000Y-140585000D03*
X111165000Y-141085000D03*
X111165000Y-141585000D03*
X111165000Y-142085000D03*
X111165000Y-142585000D03*
X111165000Y-143085000D03*
X111165000Y-143585000D03*
X111165000Y-144085000D03*
D18*
X113090000Y-146010000D03*
X113590000Y-146010000D03*
X114090000Y-146010000D03*
X114590000Y-146010000D03*
X115090000Y-146010000D03*
X115590000Y-146010000D03*
X116090000Y-146010000D03*
X116590000Y-146010000D03*
X117090000Y-146010000D03*
X117590000Y-146010000D03*
X118090000Y-146010000D03*
X118590000Y-146010000D03*
X119090000Y-146010000D03*
X119590000Y-146010000D03*
X120090000Y-146010000D03*
X120590000Y-146010000D03*
D17*
X122515000Y-144085000D03*
X122515000Y-143585000D03*
X122515000Y-143085000D03*
X122515000Y-142585000D03*
X122515000Y-142085000D03*
X122515000Y-141585000D03*
X122515000Y-141085000D03*
X122515000Y-140585000D03*
X122515000Y-140085000D03*
X122515000Y-139585000D03*
X122515000Y-139085000D03*
X122515000Y-138585000D03*
X122515000Y-138085000D03*
X122515000Y-137585000D03*
X122515000Y-137085000D03*
X122515000Y-136585000D03*
D18*
X120590000Y-134660000D03*
X120090000Y-134660000D03*
X119590000Y-134660000D03*
X119090000Y-134660000D03*
X118590000Y-134660000D03*
X118090000Y-134660000D03*
X117590000Y-134660000D03*
X117090000Y-134660000D03*
X116590000Y-134660000D03*
X116090000Y-134660000D03*
X115590000Y-134660000D03*
X115090000Y-134660000D03*
X114590000Y-134660000D03*
X114090000Y-134660000D03*
X113590000Y-134660000D03*
X113090000Y-134660000D03*
D19*
X109162000Y-123129000D03*
X109162000Y-124079000D03*
X109162000Y-125029000D03*
X111437000Y-125029000D03*
X111437000Y-123129000D03*
D20*
X119027500Y-115995000D03*
X119027500Y-116495000D03*
X119027500Y-116995000D03*
X119027500Y-117495000D03*
X119027500Y-117995000D03*
X119027500Y-118495000D03*
X119027500Y-118995000D03*
X119027500Y-119495000D03*
X119027500Y-119995000D03*
X119027500Y-120495000D03*
X119027500Y-120995000D03*
X119027500Y-121495000D03*
D21*
X120440000Y-122907500D03*
X120940000Y-122907500D03*
X121440000Y-122907500D03*
X121940000Y-122907500D03*
X122440000Y-122907500D03*
X122940000Y-122907500D03*
X123440000Y-122907500D03*
X123940000Y-122907500D03*
X124440000Y-122907500D03*
X124940000Y-122907500D03*
X125440000Y-122907500D03*
X125940000Y-122907500D03*
D20*
X127352500Y-121495000D03*
X127352500Y-120995000D03*
X127352500Y-120495000D03*
X127352500Y-119995000D03*
X127352500Y-119495000D03*
X127352500Y-118995000D03*
X127352500Y-118495000D03*
X127352500Y-117995000D03*
X127352500Y-117495000D03*
X127352500Y-116995000D03*
X127352500Y-116495000D03*
X127352500Y-115995000D03*
D21*
X125940000Y-114582500D03*
X125440000Y-114582500D03*
X124940000Y-114582500D03*
X124440000Y-114582500D03*
X123940000Y-114582500D03*
X123440000Y-114582500D03*
X122940000Y-114582500D03*
X122440000Y-114582500D03*
X121940000Y-114582500D03*
X121440000Y-114582500D03*
X120940000Y-114582500D03*
X120440000Y-114582500D03*
D22*
X103570000Y-127000000D03*
X103570000Y-128270000D03*
X103570000Y-129540000D03*
X103570000Y-130810000D03*
X103570000Y-132080000D03*
X103570000Y-133350000D03*
X103570000Y-134620000D03*
X108520000Y-134620000D03*
X108520000Y-133350000D03*
X108520000Y-132080000D03*
X108520000Y-130810000D03*
X108520000Y-129540000D03*
X108520000Y-128270000D03*
X108520000Y-127000000D03*
D12*
X102852500Y-143383000D03*
X100952500Y-143383000D03*
D23*
X126047500Y-132437500D03*
X126047500Y-134262500D03*
D24*
X100330000Y-147280000D03*
X100330000Y-145455000D03*
D11*
X107315000Y-115694500D03*
X107315000Y-113794500D03*
D23*
X126047500Y-136247500D03*
X126047500Y-138072500D03*
D13*
X107315000Y-110399000D03*
X107315000Y-112299000D03*
X115570000Y-125415000D03*
X115570000Y-127315000D03*
D24*
X129540000Y-113942500D03*
X129540000Y-112117500D03*
D12*
X123825000Y-147320000D03*
X121925000Y-147320000D03*
D25*
X110271355Y-124124358D03*
X111614858Y-122780855D03*
X109528893Y-122038393D03*
M02*
