G04 #@! TF.GenerationSoftware,KiCad,Pcbnew,6.0.8-f2edbf62ab~116~ubuntu22.04.1*
G04 #@! TF.CreationDate,2022-10-13T10:44:28+02:00*
G04 #@! TF.ProjectId,Floppy emulator with OSD,466c6f70-7079-4206-956d-756c61746f72,0.2*
G04 #@! TF.SameCoordinates,Original*
G04 #@! TF.FileFunction,Soldermask,Bot*
G04 #@! TF.FilePolarity,Negative*
%FSLAX46Y46*%
G04 Gerber Fmt 4.6, Leading zero omitted, Abs format (unit mm)*
G04 Created by KiCad (PCBNEW 6.0.8-f2edbf62ab~116~ubuntu22.04.1) date 2022-10-13 10:44:28*
%MOMM*%
%LPD*%
G01*
G04 APERTURE LIST*
G04 Aperture macros list*
%AMRoundRect*
0 Rectangle with rounded corners*
0 $1 Rounding radius*
0 $2 $3 $4 $5 $6 $7 $8 $9 X,Y pos of 4 corners*
0 Add a 4 corners polygon primitive as box body*
4,1,4,$2,$3,$4,$5,$6,$7,$8,$9,$2,$3,0*
0 Add four circle primitives for the rounded corners*
1,1,$1+$1,$2,$3*
1,1,$1+$1,$4,$5*
1,1,$1+$1,$6,$7*
1,1,$1+$1,$8,$9*
0 Add four rect primitives between the rounded corners*
20,1,$1+$1,$2,$3,$4,$5,0*
20,1,$1+$1,$4,$5,$6,$7,0*
20,1,$1+$1,$6,$7,$8,$9,0*
20,1,$1+$1,$8,$9,$2,$3,0*%
%AMFreePoly0*
4,1,22,0.500000,-0.750000,0.000000,-0.750000,0.000000,-0.745033,-0.079941,-0.743568,-0.215256,-0.701293,-0.333266,-0.622738,-0.424486,-0.514219,-0.481581,-0.384460,-0.499164,-0.250000,-0.500000,-0.250000,-0.500000,0.250000,-0.499164,0.250000,-0.499963,0.256109,-0.478152,0.396186,-0.417904,0.524511,-0.324060,0.630769,-0.204165,0.706417,-0.067858,0.745374,0.000000,0.744959,0.000000,0.750000,
0.500000,0.750000,0.500000,-0.750000,0.500000,-0.750000,$1*%
%AMFreePoly1*
4,1,20,0.000000,0.744959,0.073905,0.744508,0.209726,0.703889,0.328688,0.626782,0.421226,0.519385,0.479903,0.390333,0.500000,0.250000,0.500000,-0.250000,0.499851,-0.262216,0.476331,-0.402017,0.414519,-0.529596,0.319384,-0.634700,0.198574,-0.708877,0.061801,-0.746166,0.000000,-0.745033,0.000000,-0.750000,-0.500000,-0.750000,-0.500000,0.750000,0.000000,0.750000,0.000000,0.744959,
0.000000,0.744959,$1*%
G04 Aperture macros list end*
%ADD10R,1.700000X1.700000*%
%ADD11O,1.700000X1.700000*%
%ADD12R,1.900000X1.900000*%
%ADD13C,1.900000*%
%ADD14C,1.500000*%
%ADD15C,1.700000*%
%ADD16C,3.000000*%
%ADD17RoundRect,0.250000X-0.250000X-0.475000X0.250000X-0.475000X0.250000X0.475000X-0.250000X0.475000X0*%
%ADD18RoundRect,0.250000X0.250000X0.475000X-0.250000X0.475000X-0.250000X-0.475000X0.250000X-0.475000X0*%
%ADD19FreePoly0,180.000000*%
%ADD20FreePoly1,180.000000*%
%ADD21RoundRect,0.250000X-0.262500X-0.450000X0.262500X-0.450000X0.262500X0.450000X-0.262500X0.450000X0*%
%ADD22RoundRect,0.250000X0.262500X0.450000X-0.262500X0.450000X-0.262500X-0.450000X0.262500X-0.450000X0*%
G04 APERTURE END LIST*
D10*
X118745000Y-126365000D03*
D11*
X121285000Y-126365000D03*
X123825000Y-126365000D03*
X126365000Y-126365000D03*
D10*
X129540000Y-109220000D03*
D11*
X127000000Y-109220000D03*
X124460000Y-109220000D03*
D12*
X100965000Y-116720000D03*
D13*
X100965000Y-114220000D03*
X100965000Y-111720000D03*
X100965000Y-109220000D03*
D10*
X104140000Y-116840000D03*
D11*
X104140000Y-114300000D03*
X104140000Y-111760000D03*
X104140000Y-109220000D03*
D14*
X106680000Y-139065000D03*
X106680000Y-143945000D03*
D10*
X88900000Y-109220000D03*
D11*
X91440000Y-109220000D03*
X88900000Y-111760000D03*
X91440000Y-111760000D03*
X88900000Y-114300000D03*
X91440000Y-114300000D03*
X88900000Y-116840000D03*
X91440000Y-116840000D03*
X88900000Y-119380000D03*
X91440000Y-119380000D03*
X88900000Y-121920000D03*
X91440000Y-121920000D03*
X88900000Y-124460000D03*
X91440000Y-124460000D03*
X88900000Y-127000000D03*
X91440000Y-127000000D03*
X88900000Y-129540000D03*
X91440000Y-129540000D03*
X88900000Y-132080000D03*
X91440000Y-132080000D03*
X88900000Y-134620000D03*
X91440000Y-134620000D03*
X88900000Y-137160000D03*
X91440000Y-137160000D03*
X88900000Y-139700000D03*
X91440000Y-139700000D03*
X88900000Y-142240000D03*
X91440000Y-142240000D03*
X88900000Y-144780000D03*
X91440000Y-144780000D03*
X88900000Y-147320000D03*
X91440000Y-147320000D03*
X88900000Y-149860000D03*
X91440000Y-149860000D03*
D10*
X105410000Y-149860000D03*
D11*
X107950000Y-149860000D03*
D15*
X128905000Y-149860000D03*
X126365000Y-149860000D03*
X121285000Y-149860000D03*
X128905000Y-144780000D03*
D10*
X106045000Y-120650000D03*
D11*
X103505000Y-120650000D03*
X100965000Y-120650000D03*
D15*
X123825000Y-149860000D03*
X128905000Y-142240000D03*
X128905000Y-147320000D03*
D14*
X111125000Y-110580000D03*
X111125000Y-115460000D03*
D10*
X128905000Y-134620000D03*
D11*
X128905000Y-137160000D03*
X128905000Y-139700000D03*
D10*
X132080000Y-109220000D03*
D11*
X132080000Y-111760000D03*
X132080000Y-114300000D03*
D14*
X130810000Y-127960000D03*
X130810000Y-125460000D03*
X130810000Y-123460000D03*
X130810000Y-120960000D03*
D16*
X132260000Y-131030000D03*
X132260000Y-117890000D03*
D10*
X132080000Y-149860000D03*
D11*
X132080000Y-147320000D03*
X132080000Y-144780000D03*
X132080000Y-142240000D03*
X132080000Y-139700000D03*
X132080000Y-137160000D03*
X132080000Y-134620000D03*
D10*
X100330000Y-149860000D03*
D11*
X102870000Y-149860000D03*
D10*
X121285000Y-128905000D03*
D11*
X123825000Y-128905000D03*
X126365000Y-128905000D03*
D15*
X119380000Y-109220000D03*
X127000000Y-111760000D03*
X121920000Y-109220000D03*
X119380000Y-111760000D03*
D17*
X113985000Y-142240000D03*
X115885000Y-142240000D03*
D18*
X119695000Y-142240000D03*
X117795000Y-142240000D03*
X119695000Y-138430000D03*
X117795000Y-138430000D03*
D17*
X113985000Y-138430000D03*
X115885000Y-138430000D03*
X120510500Y-117792500D03*
X122410500Y-117792500D03*
D18*
X125918000Y-117792500D03*
X124018000Y-117792500D03*
X125918000Y-119697500D03*
X124018000Y-119697500D03*
D17*
X120510500Y-119697500D03*
X122410500Y-119697500D03*
D19*
X117871000Y-121920000D03*
D20*
X116571000Y-121920000D03*
D10*
X94615000Y-109220000D03*
D11*
X97155000Y-109220000D03*
X94615000Y-111760000D03*
X97155000Y-111760000D03*
X94615000Y-114300000D03*
X97155000Y-114300000D03*
X94615000Y-116840000D03*
X97155000Y-116840000D03*
X94615000Y-119380000D03*
X97155000Y-119380000D03*
X94615000Y-121920000D03*
X97155000Y-121920000D03*
X94615000Y-124460000D03*
X97155000Y-124460000D03*
X94615000Y-127000000D03*
X97155000Y-127000000D03*
X94615000Y-129540000D03*
X97155000Y-129540000D03*
X94615000Y-132080000D03*
X97155000Y-132080000D03*
X94615000Y-134620000D03*
X97155000Y-134620000D03*
X94615000Y-137160000D03*
X97155000Y-137160000D03*
X94615000Y-139700000D03*
X97155000Y-139700000D03*
X94615000Y-142240000D03*
X97155000Y-142240000D03*
X94615000Y-144780000D03*
X97155000Y-144780000D03*
X94615000Y-147320000D03*
X97155000Y-147320000D03*
X94615000Y-149860000D03*
X97155000Y-149860000D03*
D21*
X117832500Y-145415000D03*
X119657500Y-145415000D03*
D10*
X116205000Y-109230000D03*
D11*
X116205000Y-111770000D03*
X116205000Y-114310000D03*
X116205000Y-116850000D03*
D22*
X115847500Y-145415000D03*
X114022500Y-145415000D03*
M02*
