M48
; DRILL file {KiCad 6.0.8-f2edbf62ab~116~ubuntu22.04.1} date jeu. 13 oct. 2022 10:44:43
; FORMAT={-:-/ absolute / metric / decimal}
; #@! TF.CreationDate,2022-10-13T10:44:43+02:00
; #@! TF.GenerationSoftware,Kicad,Pcbnew,6.0.8-f2edbf62ab~116~ubuntu22.04.1
; #@! TF.FileFunction,Plated,1,2,PTH
FMAT,2
METRIC
; #@! TA.AperFunction,Plated,PTH,ViaDrill
T1C0.400
; #@! TA.AperFunction,Plated,PTH,ComponentDrill
T2C0.800
; #@! TA.AperFunction,Plated,PTH,ComponentDrill
T3C1.000
; #@! TA.AperFunction,Plated,PTH,ComponentDrill
T4C1.200
; #@! TA.AperFunction,Plated,PTH,ComponentDrill
T5C2.300
%
G90
G05
T1
X98.425Y-132.715
X99.06Y-132.08
X99.695Y-130.81
X100.33Y-130.175
X100.33Y-133.35
X100.393Y-125.73
X100.965Y-128.27
X101.282Y-125.73
X101.6Y-131.445
X101.6Y-147.955
X102.235Y-125.73
X102.235Y-135.255
X102.235Y-146.05
X102.87Y-146.685
X103.124Y-125.73
X103.505Y-145.415
X104.14Y-125.73
X104.14Y-136.525
X104.775Y-144.589
X104.965Y-125.73
X105.41Y-130.81
X105.41Y-132.08
X105.41Y-147.32
X106.045Y-125.73
X106.045Y-133.985
X106.045Y-137.16
X106.68Y-126.365
X106.68Y-132.715
X106.68Y-135.255
X106.68Y-141.287
X107.95Y-142.875
X108.564Y-137.815
X108.585Y-146.05
X109.152Y-137.273
X109.22Y-118.745
X109.528Y-136.566
X110.49Y-148.59
X111.95Y-120.206
X112.395Y-135.255
X112.395Y-144.78
X113.03Y-148.59
X113.03Y-131.445
X113.03Y-137.16
X113.03Y-143.51
X113.538Y-124.333
X113.665Y-132.08
X113.665Y-140.335
X114.809Y-132.841
X115.57Y-148.59
X116.459Y-131.445
X116.649Y-120.523
X116.836Y-144.761
X116.84Y-137.16
X116.84Y-143.51
X117.816Y-120.522
X118.11Y-148.59
X118.215Y-132.715
X118.745Y-144.526
X118.808Y-147.447
X119.38Y-123.825
X119.701Y-147.298
X120.015Y-140.335
X120.65Y-137.16
X120.65Y-143.51
X120.955Y-139.61
X121.285Y-116.84
X121.285Y-120.65
X121.285Y-134.62
X121.285Y-135.42
X122.679Y-111.884
X123.19Y-116.428
X123.19Y-118.745
X123.19Y-121.475
X123.253Y-132.08
X123.444Y-110.744
X123.825Y-132.715
X124.396Y-133.35
X125.095Y-116.84
X125.095Y-120.65
X125.095Y-143.764
X125.095Y-144.78
X125.095Y-146.05
X125.651Y-115.803
X125.73Y-145.415
X126.873Y-114.617
X128.589Y-117.422
X128.778Y-125.031
T2
X106.68Y-139.065
X106.68Y-143.945
X111.125Y-110.58
X111.125Y-115.46
T3
X88.9Y-109.22
X88.9Y-111.76
X88.9Y-114.3
X88.9Y-116.84
X88.9Y-119.38
X88.9Y-121.92
X88.9Y-124.46
X88.9Y-127.0
X88.9Y-129.54
X88.9Y-132.08
X88.9Y-134.62
X88.9Y-137.16
X88.9Y-139.7
X88.9Y-142.24
X88.9Y-144.78
X88.9Y-147.32
X88.9Y-149.86
X91.44Y-109.22
X91.44Y-111.76
X91.44Y-114.3
X91.44Y-116.84
X91.44Y-119.38
X91.44Y-121.92
X91.44Y-124.46
X91.44Y-127.0
X91.44Y-129.54
X91.44Y-132.08
X91.44Y-134.62
X91.44Y-137.16
X91.44Y-139.7
X91.44Y-142.24
X91.44Y-144.78
X91.44Y-147.32
X91.44Y-149.86
X94.615Y-109.22
X94.615Y-111.76
X94.615Y-114.3
X94.615Y-116.84
X94.615Y-119.38
X94.615Y-121.92
X94.615Y-124.46
X94.615Y-127.0
X94.615Y-129.54
X94.615Y-132.08
X94.615Y-134.62
X94.615Y-137.16
X94.615Y-139.7
X94.615Y-142.24
X94.615Y-144.78
X94.615Y-147.32
X94.615Y-149.86
X97.155Y-109.22
X97.155Y-111.76
X97.155Y-114.3
X97.155Y-116.84
X97.155Y-119.38
X97.155Y-121.92
X97.155Y-124.46
X97.155Y-127.0
X97.155Y-129.54
X97.155Y-132.08
X97.155Y-134.62
X97.155Y-137.16
X97.155Y-139.7
X97.155Y-142.24
X97.155Y-144.78
X97.155Y-147.32
X97.155Y-149.86
X100.33Y-149.86
X100.965Y-120.65
X102.87Y-149.86
X103.505Y-120.65
X104.14Y-109.22
X104.14Y-111.76
X104.14Y-114.3
X104.14Y-116.84
X105.41Y-149.86
X106.045Y-120.65
X107.95Y-149.86
X116.205Y-109.23
X116.205Y-111.77
X116.205Y-114.31
X116.205Y-116.85
X118.745Y-126.365
X119.38Y-109.22
X119.38Y-111.76
X121.285Y-126.365
X121.285Y-128.905
X121.285Y-149.86
X121.92Y-109.22
X123.825Y-126.365
X123.825Y-128.905
X123.825Y-149.86
X124.46Y-109.22
X126.365Y-126.365
X126.365Y-128.905
X126.365Y-149.86
X127.0Y-109.22
X127.0Y-111.76
X128.905Y-134.62
X128.905Y-137.16
X128.905Y-139.7
X128.905Y-142.24
X128.905Y-144.78
X128.905Y-147.32
X128.905Y-149.86
X129.54Y-109.22
X130.81Y-120.96
X130.81Y-123.46
X130.81Y-125.46
X130.81Y-127.96
X132.08Y-109.22
X132.08Y-111.76
X132.08Y-114.3
X132.08Y-134.62
X132.08Y-137.16
X132.08Y-139.7
X132.08Y-142.24
X132.08Y-144.78
X132.08Y-147.32
X132.08Y-149.86
T4
X100.965Y-109.22
X100.965Y-111.72
X100.965Y-114.22
X100.965Y-116.72
T5
X132.26Y-117.89
X132.26Y-131.03
T0
M30
