%TF.GenerationSoftware,KiCad,Pcbnew,6.0.8-f2edbf62ab~116~ubuntu22.04.1*%
%TF.CreationDate,2022-10-13T10:44:43+02:00*%
%TF.ProjectId,Floppy emulator with OSD,466c6f70-7079-4206-956d-756c61746f72,0.2*%
%TF.SameCoordinates,Original*%
%TF.FileFunction,Drillmap*%
%TF.FilePolarity,Positive*%
%FSLAX45Y45*%
G04 Gerber Fmt 4.5, Leading zero omitted, Abs format (unit mm)*
G04 Created by KiCad (PCBNEW 6.0.8-f2edbf62ab~116~ubuntu22.04.1) date 2022-10-13 10:44:43*
%MOMM*%
%LPD*%
G01*
G04 APERTURE LIST*
%ADD10C,0.100000*%
%ADD11C,0.200000*%
%ADD12C,0.040000*%
%ADD13C,0.080000*%
%ADD14C,0.120000*%
%ADD15C,0.230000*%
G04 APERTURE END LIST*
D10*
X8699500Y-15240000D02*
X13398500Y-15240000D01*
X13398500Y-10668000D02*
X8699500Y-10668000D01*
X13398500Y-15240000D02*
X13398500Y-10668000D01*
X8699500Y-10668000D02*
X8699500Y-15240000D01*
D11*
D12*
X9822500Y-13251500D02*
X9862500Y-13291500D01*
X9862500Y-13251500D02*
X9822500Y-13291500D01*
X9886000Y-13188000D02*
X9926000Y-13228000D01*
X9926000Y-13188000D02*
X9886000Y-13228000D01*
X9949500Y-13061000D02*
X9989500Y-13101000D01*
X9989500Y-13061000D02*
X9949500Y-13101000D01*
X10013000Y-12997500D02*
X10053000Y-13037500D01*
X10053000Y-12997500D02*
X10013000Y-13037500D01*
X10013000Y-13315000D02*
X10053000Y-13355000D01*
X10053000Y-13315000D02*
X10013000Y-13355000D01*
X10019350Y-12553000D02*
X10059350Y-12593000D01*
X10059350Y-12553000D02*
X10019350Y-12593000D01*
X10076500Y-12807000D02*
X10116500Y-12847000D01*
X10116500Y-12807000D02*
X10076500Y-12847000D01*
X10108250Y-12553000D02*
X10148250Y-12593000D01*
X10148250Y-12553000D02*
X10108250Y-12593000D01*
X10140000Y-13124500D02*
X10180000Y-13164500D01*
X10180000Y-13124500D02*
X10140000Y-13164500D01*
X10140000Y-14775500D02*
X10180000Y-14815500D01*
X10180000Y-14775500D02*
X10140000Y-14815500D01*
X10203500Y-12553000D02*
X10243500Y-12593000D01*
X10243500Y-12553000D02*
X10203500Y-12593000D01*
X10203500Y-13505500D02*
X10243500Y-13545500D01*
X10243500Y-13505500D02*
X10203500Y-13545500D01*
X10203500Y-14585000D02*
X10243500Y-14625000D01*
X10243500Y-14585000D02*
X10203500Y-14625000D01*
X10267000Y-14648500D02*
X10307000Y-14688500D01*
X10307000Y-14648500D02*
X10267000Y-14688500D01*
X10292400Y-12553000D02*
X10332400Y-12593000D01*
X10332400Y-12553000D02*
X10292400Y-12593000D01*
X10330500Y-14521500D02*
X10370500Y-14561500D01*
X10370500Y-14521500D02*
X10330500Y-14561500D01*
X10394000Y-12553000D02*
X10434000Y-12593000D01*
X10434000Y-12553000D02*
X10394000Y-12593000D01*
X10394000Y-13632500D02*
X10434000Y-13672500D01*
X10434000Y-13632500D02*
X10394000Y-13672500D01*
X10457500Y-14438950D02*
X10497500Y-14478950D01*
X10497500Y-14438950D02*
X10457500Y-14478950D01*
X10476550Y-12553000D02*
X10516550Y-12593000D01*
X10516550Y-12553000D02*
X10476550Y-12593000D01*
X10521000Y-13061000D02*
X10561000Y-13101000D01*
X10561000Y-13061000D02*
X10521000Y-13101000D01*
X10521000Y-13188000D02*
X10561000Y-13228000D01*
X10561000Y-13188000D02*
X10521000Y-13228000D01*
X10521000Y-14712000D02*
X10561000Y-14752000D01*
X10561000Y-14712000D02*
X10521000Y-14752000D01*
X10584500Y-12553000D02*
X10624500Y-12593000D01*
X10624500Y-12553000D02*
X10584500Y-12593000D01*
X10584500Y-13378500D02*
X10624500Y-13418500D01*
X10624500Y-13378500D02*
X10584500Y-13418500D01*
X10584500Y-13696000D02*
X10624500Y-13736000D01*
X10624500Y-13696000D02*
X10584500Y-13736000D01*
X10648000Y-12616500D02*
X10688000Y-12656500D01*
X10688000Y-12616500D02*
X10648000Y-12656500D01*
X10648000Y-13251501D02*
X10688000Y-13291501D01*
X10688000Y-13251501D02*
X10648000Y-13291501D01*
X10648000Y-13505500D02*
X10688000Y-13545500D01*
X10688000Y-13505500D02*
X10648000Y-13545500D01*
X10648000Y-14108750D02*
X10688000Y-14148750D01*
X10688000Y-14108750D02*
X10648000Y-14148750D01*
X10775000Y-14267500D02*
X10815000Y-14307500D01*
X10815000Y-14267500D02*
X10775000Y-14307500D01*
X10836375Y-13761457D02*
X10876375Y-13801457D01*
X10876375Y-13761457D02*
X10836375Y-13801457D01*
X10838500Y-14585000D02*
X10878500Y-14625000D01*
X10878500Y-14585000D02*
X10838500Y-14625000D01*
X10895221Y-13707260D02*
X10935221Y-13747260D01*
X10935221Y-13707260D02*
X10895221Y-13747260D01*
X10902000Y-11854500D02*
X10942000Y-11894500D01*
X10942000Y-11854500D02*
X10902000Y-11894500D01*
X10932788Y-13636628D02*
X10972788Y-13676628D01*
X10972788Y-13636628D02*
X10932788Y-13676628D01*
X11029000Y-14839000D02*
X11069000Y-14879000D01*
X11069000Y-14839000D02*
X11029000Y-14879000D01*
X11175050Y-12000550D02*
X11215050Y-12040550D01*
X11215050Y-12000550D02*
X11175050Y-12040550D01*
X11219500Y-13505500D02*
X11259500Y-13545500D01*
X11259500Y-13505500D02*
X11219500Y-13545500D01*
X11219500Y-14458000D02*
X11259500Y-14498000D01*
X11259500Y-14458000D02*
X11219500Y-14498000D01*
X11282999Y-14839000D02*
X11322999Y-14879000D01*
X11322999Y-14839000D02*
X11282999Y-14879000D01*
X11283000Y-13124500D02*
X11323000Y-13164500D01*
X11323000Y-13124500D02*
X11283000Y-13164500D01*
X11283000Y-13696000D02*
X11323000Y-13736000D01*
X11323000Y-13696000D02*
X11283000Y-13736000D01*
X11283000Y-14331000D02*
X11323000Y-14371000D01*
X11323000Y-14331000D02*
X11283000Y-14371000D01*
X11333800Y-12413300D02*
X11373800Y-12453300D01*
X11373800Y-12413300D02*
X11333800Y-12453300D01*
X11346500Y-13188000D02*
X11386500Y-13228000D01*
X11386500Y-13188000D02*
X11346500Y-13228000D01*
X11346500Y-14013500D02*
X11386500Y-14053500D01*
X11386500Y-14013500D02*
X11346500Y-14053500D01*
X11460914Y-13264086D02*
X11500914Y-13304086D01*
X11500914Y-13264086D02*
X11460914Y-13304086D01*
X11537001Y-14839000D02*
X11577001Y-14879000D01*
X11577001Y-14839000D02*
X11537001Y-14879000D01*
X11625900Y-13124500D02*
X11665900Y-13164500D01*
X11665900Y-13124500D02*
X11625900Y-13164500D01*
X11644950Y-12032300D02*
X11684950Y-12072300D01*
X11684950Y-12032300D02*
X11644950Y-12072300D01*
X11663580Y-14456148D02*
X11703580Y-14496148D01*
X11703580Y-14456148D02*
X11663580Y-14496148D01*
X11664000Y-13696000D02*
X11704000Y-13736000D01*
X11704000Y-13696000D02*
X11664000Y-13736000D01*
X11664000Y-14331000D02*
X11704000Y-14371000D01*
X11704000Y-14331000D02*
X11664000Y-14371000D01*
X11761631Y-12032221D02*
X11801631Y-12072221D01*
X11801631Y-12032221D02*
X11761631Y-12072221D01*
X11791000Y-14839000D02*
X11831000Y-14879000D01*
X11831000Y-14839000D02*
X11791000Y-14879000D01*
X11801500Y-13251500D02*
X11841500Y-13291500D01*
X11841500Y-13251500D02*
X11801500Y-13291500D01*
X11854500Y-14432600D02*
X11894500Y-14472600D01*
X11894500Y-14432600D02*
X11854500Y-14472600D01*
X11860850Y-14724700D02*
X11900850Y-14764700D01*
X11900850Y-14724700D02*
X11860850Y-14764700D01*
X11918000Y-12362500D02*
X11958000Y-12402500D01*
X11958000Y-12362500D02*
X11918000Y-12402500D01*
X11950089Y-14709754D02*
X11990089Y-14749754D01*
X11990089Y-14709754D02*
X11950089Y-14749754D01*
X11981500Y-14013500D02*
X12021500Y-14053500D01*
X12021500Y-14013500D02*
X11981500Y-14053500D01*
X12045000Y-13696000D02*
X12085000Y-13736000D01*
X12085000Y-13696000D02*
X12045000Y-13736000D01*
X12045000Y-14331000D02*
X12085000Y-14371000D01*
X12085000Y-14331000D02*
X12045000Y-14371000D01*
X12075508Y-13940963D02*
X12115508Y-13980963D01*
X12115508Y-13940963D02*
X12075508Y-13980963D01*
X12108500Y-11664000D02*
X12148500Y-11704000D01*
X12148500Y-11664000D02*
X12108500Y-11704000D01*
X12108500Y-12045000D02*
X12148500Y-12085000D01*
X12148500Y-12045000D02*
X12108500Y-12085000D01*
X12108500Y-13442000D02*
X12148500Y-13482000D01*
X12148500Y-13442000D02*
X12108500Y-13482000D01*
X12108500Y-13522000D02*
X12148500Y-13562000D01*
X12148500Y-13522000D02*
X12108500Y-13562000D01*
X12247944Y-11168444D02*
X12287944Y-11208444D01*
X12287944Y-11168444D02*
X12247944Y-11208444D01*
X12299000Y-11622759D02*
X12339000Y-11662759D01*
X12339000Y-11622759D02*
X12299000Y-11662759D01*
X12299000Y-11854500D02*
X12339000Y-11894500D01*
X12339000Y-11854500D02*
X12299000Y-11894500D01*
X12299000Y-12127550D02*
X12339000Y-12167550D01*
X12339000Y-12127550D02*
X12299000Y-12167550D01*
X12305350Y-13188000D02*
X12345350Y-13228000D01*
X12345350Y-13188000D02*
X12305350Y-13228000D01*
X12324400Y-11054400D02*
X12364400Y-11094400D01*
X12364400Y-11054400D02*
X12324400Y-11094400D01*
X12362500Y-13251500D02*
X12402500Y-13291500D01*
X12402500Y-13251500D02*
X12362500Y-13291500D01*
X12419650Y-13315000D02*
X12459650Y-13355000D01*
X12459650Y-13315000D02*
X12419650Y-13355000D01*
X12489500Y-11664000D02*
X12529500Y-11704000D01*
X12529500Y-11664000D02*
X12489500Y-11704000D01*
X12489500Y-12045000D02*
X12529500Y-12085000D01*
X12529500Y-12045000D02*
X12489500Y-12085000D01*
X12489500Y-14356400D02*
X12529500Y-14396400D01*
X12529500Y-14356400D02*
X12489500Y-14396400D01*
X12489500Y-14458000D02*
X12529500Y-14498000D01*
X12529500Y-14458000D02*
X12489500Y-14498000D01*
X12489500Y-14585000D02*
X12529500Y-14625000D01*
X12529500Y-14585000D02*
X12489500Y-14625000D01*
X12545135Y-11560309D02*
X12585135Y-11600309D01*
X12585135Y-11560309D02*
X12545135Y-11600309D01*
X12553000Y-14521500D02*
X12593000Y-14561500D01*
X12593000Y-14521500D02*
X12553000Y-14561500D01*
X12667300Y-11441750D02*
X12707300Y-11481750D01*
X12707300Y-11441750D02*
X12667300Y-11481750D01*
X12838950Y-11722154D02*
X12878950Y-11762154D01*
X12878950Y-11722154D02*
X12838950Y-11762154D01*
X12857800Y-12483150D02*
X12897800Y-12523150D01*
X12897800Y-12483150D02*
X12857800Y-12523150D01*
D13*
X10708000Y-13906500D02*
G75*
G03*
X10708000Y-13906500I-40000J0D01*
G01*
X10708000Y-14394500D02*
G75*
G03*
X10708000Y-14394500I-40000J0D01*
G01*
X11152500Y-11058000D02*
G75*
G03*
X11152500Y-11058000I-40000J0D01*
G01*
X11152500Y-11546000D02*
G75*
G03*
X11152500Y-11546000I-40000J0D01*
G01*
D10*
X8890000Y-10872000D02*
X8890000Y-10972000D01*
X8840000Y-10922000D02*
X8940000Y-10922000D01*
X8890000Y-11126000D02*
X8890000Y-11226000D01*
X8840000Y-11176000D02*
X8940000Y-11176000D01*
X8890000Y-11380000D02*
X8890000Y-11480000D01*
X8840000Y-11430000D02*
X8940000Y-11430000D01*
X8890000Y-11634000D02*
X8890000Y-11734000D01*
X8840000Y-11684000D02*
X8940000Y-11684000D01*
X8890000Y-11888000D02*
X8890000Y-11988000D01*
X8840000Y-11938000D02*
X8940000Y-11938000D01*
X8890000Y-12142000D02*
X8890000Y-12242000D01*
X8840000Y-12192000D02*
X8940000Y-12192000D01*
X8890000Y-12396000D02*
X8890000Y-12496000D01*
X8840000Y-12446000D02*
X8940000Y-12446000D01*
X8890000Y-12650000D02*
X8890000Y-12750000D01*
X8840000Y-12700000D02*
X8940000Y-12700000D01*
X8890000Y-12904000D02*
X8890000Y-13004000D01*
X8840000Y-12954000D02*
X8940000Y-12954000D01*
X8890000Y-13158000D02*
X8890000Y-13258000D01*
X8840000Y-13208000D02*
X8940000Y-13208000D01*
X8890000Y-13412000D02*
X8890000Y-13512000D01*
X8840000Y-13462000D02*
X8940000Y-13462000D01*
X8890000Y-13666000D02*
X8890000Y-13766000D01*
X8840000Y-13716000D02*
X8940000Y-13716000D01*
X8890000Y-13920000D02*
X8890000Y-14020000D01*
X8840000Y-13970000D02*
X8940000Y-13970000D01*
X8890000Y-14174000D02*
X8890000Y-14274000D01*
X8840000Y-14224000D02*
X8940000Y-14224000D01*
X8890000Y-14428000D02*
X8890000Y-14528000D01*
X8840000Y-14478000D02*
X8940000Y-14478000D01*
X8890000Y-14682000D02*
X8890000Y-14782000D01*
X8840000Y-14732000D02*
X8940000Y-14732000D01*
X8890000Y-14936000D02*
X8890000Y-15036000D01*
X8840000Y-14986000D02*
X8940000Y-14986000D01*
X9144000Y-10872000D02*
X9144000Y-10972000D01*
X9094000Y-10922000D02*
X9194000Y-10922000D01*
X9144000Y-11126000D02*
X9144000Y-11226000D01*
X9094000Y-11176000D02*
X9194000Y-11176000D01*
X9144000Y-11380000D02*
X9144000Y-11480000D01*
X9094000Y-11430000D02*
X9194000Y-11430000D01*
X9144000Y-11634000D02*
X9144000Y-11734000D01*
X9094000Y-11684000D02*
X9194000Y-11684000D01*
X9144000Y-11888000D02*
X9144000Y-11988000D01*
X9094000Y-11938000D02*
X9194000Y-11938000D01*
X9144000Y-12142000D02*
X9144000Y-12242000D01*
X9094000Y-12192000D02*
X9194000Y-12192000D01*
X9144000Y-12396000D02*
X9144000Y-12496000D01*
X9094000Y-12446000D02*
X9194000Y-12446000D01*
X9144000Y-12650000D02*
X9144000Y-12750000D01*
X9094000Y-12700000D02*
X9194000Y-12700000D01*
X9144000Y-12904000D02*
X9144000Y-13004000D01*
X9094000Y-12954000D02*
X9194000Y-12954000D01*
X9144000Y-13158000D02*
X9144000Y-13258000D01*
X9094000Y-13208000D02*
X9194000Y-13208000D01*
X9144000Y-13412000D02*
X9144000Y-13512000D01*
X9094000Y-13462000D02*
X9194000Y-13462000D01*
X9144000Y-13666000D02*
X9144000Y-13766000D01*
X9094000Y-13716000D02*
X9194000Y-13716000D01*
X9144000Y-13920000D02*
X9144000Y-14020000D01*
X9094000Y-13970000D02*
X9194000Y-13970000D01*
X9144000Y-14174000D02*
X9144000Y-14274000D01*
X9094000Y-14224000D02*
X9194000Y-14224000D01*
X9144000Y-14428000D02*
X9144000Y-14528000D01*
X9094000Y-14478000D02*
X9194000Y-14478000D01*
X9144000Y-14682000D02*
X9144000Y-14782000D01*
X9094000Y-14732000D02*
X9194000Y-14732000D01*
X9144000Y-14936000D02*
X9144000Y-15036000D01*
X9094000Y-14986000D02*
X9194000Y-14986000D01*
X9461500Y-10872000D02*
X9461500Y-10972000D01*
X9411500Y-10922000D02*
X9511500Y-10922000D01*
X9461500Y-11126000D02*
X9461500Y-11226000D01*
X9411500Y-11176000D02*
X9511500Y-11176000D01*
X9461500Y-11380000D02*
X9461500Y-11480000D01*
X9411500Y-11430000D02*
X9511500Y-11430000D01*
X9461500Y-11634000D02*
X9461500Y-11734000D01*
X9411500Y-11684000D02*
X9511500Y-11684000D01*
X9461500Y-11888000D02*
X9461500Y-11988000D01*
X9411500Y-11938000D02*
X9511500Y-11938000D01*
X9461500Y-12142000D02*
X9461500Y-12242000D01*
X9411500Y-12192000D02*
X9511500Y-12192000D01*
X9461500Y-12396000D02*
X9461500Y-12496000D01*
X9411500Y-12446000D02*
X9511500Y-12446000D01*
X9461500Y-12650000D02*
X9461500Y-12750000D01*
X9411500Y-12700000D02*
X9511500Y-12700000D01*
X9461500Y-12904000D02*
X9461500Y-13004000D01*
X9411500Y-12954000D02*
X9511500Y-12954000D01*
X9461500Y-13158000D02*
X9461500Y-13258000D01*
X9411500Y-13208000D02*
X9511500Y-13208000D01*
X9461500Y-13412000D02*
X9461500Y-13512000D01*
X9411500Y-13462000D02*
X9511500Y-13462000D01*
X9461500Y-13666000D02*
X9461500Y-13766000D01*
X9411500Y-13716000D02*
X9511500Y-13716000D01*
X9461500Y-13920000D02*
X9461500Y-14020000D01*
X9411500Y-13970000D02*
X9511500Y-13970000D01*
X9461500Y-14174000D02*
X9461500Y-14274000D01*
X9411500Y-14224000D02*
X9511500Y-14224000D01*
X9461500Y-14428000D02*
X9461500Y-14528000D01*
X9411500Y-14478000D02*
X9511500Y-14478000D01*
X9461500Y-14682000D02*
X9461500Y-14782000D01*
X9411500Y-14732000D02*
X9511500Y-14732000D01*
X9461500Y-14936000D02*
X9461500Y-15036000D01*
X9411500Y-14986000D02*
X9511500Y-14986000D01*
X9715500Y-10872000D02*
X9715500Y-10972000D01*
X9665500Y-10922000D02*
X9765500Y-10922000D01*
X9715500Y-11126000D02*
X9715500Y-11226000D01*
X9665500Y-11176000D02*
X9765500Y-11176000D01*
X9715500Y-11380000D02*
X9715500Y-11480000D01*
X9665500Y-11430000D02*
X9765500Y-11430000D01*
X9715500Y-11634000D02*
X9715500Y-11734000D01*
X9665500Y-11684000D02*
X9765500Y-11684000D01*
X9715500Y-11888000D02*
X9715500Y-11988000D01*
X9665500Y-11938000D02*
X9765500Y-11938000D01*
X9715500Y-12142000D02*
X9715500Y-12242000D01*
X9665500Y-12192000D02*
X9765500Y-12192000D01*
X9715500Y-12396000D02*
X9715500Y-12496000D01*
X9665500Y-12446000D02*
X9765500Y-12446000D01*
X9715500Y-12650000D02*
X9715500Y-12750000D01*
X9665500Y-12700000D02*
X9765500Y-12700000D01*
X9715500Y-12904000D02*
X9715500Y-13004000D01*
X9665500Y-12954000D02*
X9765500Y-12954000D01*
X9715500Y-13158000D02*
X9715500Y-13258000D01*
X9665500Y-13208000D02*
X9765500Y-13208000D01*
X9715500Y-13412000D02*
X9715500Y-13512000D01*
X9665500Y-13462000D02*
X9765500Y-13462000D01*
X9715500Y-13666000D02*
X9715500Y-13766000D01*
X9665500Y-13716000D02*
X9765500Y-13716000D01*
X9715500Y-13920000D02*
X9715500Y-14020000D01*
X9665500Y-13970000D02*
X9765500Y-13970000D01*
X9715500Y-14174000D02*
X9715500Y-14274000D01*
X9665500Y-14224000D02*
X9765500Y-14224000D01*
X9715500Y-14428000D02*
X9715500Y-14528000D01*
X9665500Y-14478000D02*
X9765500Y-14478000D01*
X9715500Y-14682000D02*
X9715500Y-14782000D01*
X9665500Y-14732000D02*
X9765500Y-14732000D01*
X9715500Y-14936000D02*
X9715500Y-15036000D01*
X9665500Y-14986000D02*
X9765500Y-14986000D01*
X10033000Y-14936000D02*
X10033000Y-15036000D01*
X9983000Y-14986000D02*
X10083000Y-14986000D01*
X10096500Y-12015000D02*
X10096500Y-12115000D01*
X10046500Y-12065000D02*
X10146500Y-12065000D01*
X10287000Y-14936000D02*
X10287000Y-15036000D01*
X10237000Y-14986000D02*
X10337000Y-14986000D01*
X10350500Y-12015000D02*
X10350500Y-12115000D01*
X10300500Y-12065000D02*
X10400500Y-12065000D01*
X10414000Y-10872000D02*
X10414000Y-10972000D01*
X10364000Y-10922000D02*
X10464000Y-10922000D01*
X10414000Y-11126000D02*
X10414000Y-11226000D01*
X10364000Y-11176000D02*
X10464000Y-11176000D01*
X10414000Y-11380000D02*
X10414000Y-11480000D01*
X10364000Y-11430000D02*
X10464000Y-11430000D01*
X10414000Y-11634000D02*
X10414000Y-11734000D01*
X10364000Y-11684000D02*
X10464000Y-11684000D01*
X10541000Y-14936000D02*
X10541000Y-15036000D01*
X10491000Y-14986000D02*
X10591000Y-14986000D01*
X10604500Y-12015000D02*
X10604500Y-12115000D01*
X10554500Y-12065000D02*
X10654500Y-12065000D01*
X10795000Y-14936000D02*
X10795000Y-15036000D01*
X10745000Y-14986000D02*
X10845000Y-14986000D01*
X11620500Y-10873000D02*
X11620500Y-10973000D01*
X11570500Y-10923000D02*
X11670500Y-10923000D01*
X11620500Y-11127000D02*
X11620500Y-11227000D01*
X11570500Y-11177000D02*
X11670500Y-11177000D01*
X11620500Y-11381000D02*
X11620500Y-11481000D01*
X11570500Y-11431000D02*
X11670500Y-11431000D01*
X11620500Y-11635000D02*
X11620500Y-11735000D01*
X11570500Y-11685000D02*
X11670500Y-11685000D01*
X11874500Y-12586500D02*
X11874500Y-12686500D01*
X11824500Y-12636500D02*
X11924500Y-12636500D01*
X11938000Y-10872000D02*
X11938000Y-10972000D01*
X11888000Y-10922000D02*
X11988000Y-10922000D01*
X11938000Y-11126000D02*
X11938000Y-11226000D01*
X11888000Y-11176000D02*
X11988000Y-11176000D01*
X12128500Y-12586500D02*
X12128500Y-12686500D01*
X12078500Y-12636500D02*
X12178500Y-12636500D01*
X12128500Y-12840500D02*
X12128500Y-12940500D01*
X12078500Y-12890500D02*
X12178500Y-12890500D01*
X12128500Y-14936000D02*
X12128500Y-15036000D01*
X12078500Y-14986000D02*
X12178500Y-14986000D01*
X12192000Y-10872000D02*
X12192000Y-10972000D01*
X12142000Y-10922000D02*
X12242000Y-10922000D01*
X12382500Y-12586500D02*
X12382500Y-12686500D01*
X12332500Y-12636500D02*
X12432500Y-12636500D01*
X12382500Y-12840500D02*
X12382500Y-12940500D01*
X12332500Y-12890500D02*
X12432500Y-12890500D01*
X12382500Y-14936000D02*
X12382500Y-15036000D01*
X12332500Y-14986000D02*
X12432500Y-14986000D01*
X12446000Y-10872000D02*
X12446000Y-10972000D01*
X12396000Y-10922000D02*
X12496000Y-10922000D01*
X12636500Y-12586500D02*
X12636500Y-12686500D01*
X12586500Y-12636500D02*
X12686500Y-12636500D01*
X12636500Y-12840500D02*
X12636500Y-12940500D01*
X12586500Y-12890500D02*
X12686500Y-12890500D01*
X12636500Y-14936000D02*
X12636500Y-15036000D01*
X12586500Y-14986000D02*
X12686500Y-14986000D01*
X12700000Y-10872000D02*
X12700000Y-10972000D01*
X12650000Y-10922000D02*
X12750000Y-10922000D01*
X12700000Y-11126000D02*
X12700000Y-11226000D01*
X12650000Y-11176000D02*
X12750000Y-11176000D01*
X12890500Y-13412000D02*
X12890500Y-13512000D01*
X12840500Y-13462000D02*
X12940500Y-13462000D01*
X12890500Y-13666000D02*
X12890500Y-13766000D01*
X12840500Y-13716000D02*
X12940500Y-13716000D01*
X12890500Y-13920000D02*
X12890500Y-14020000D01*
X12840500Y-13970000D02*
X12940500Y-13970000D01*
X12890500Y-14174000D02*
X12890500Y-14274000D01*
X12840500Y-14224000D02*
X12940500Y-14224000D01*
X12890500Y-14428000D02*
X12890500Y-14528000D01*
X12840500Y-14478000D02*
X12940500Y-14478000D01*
X12890500Y-14682000D02*
X12890500Y-14782000D01*
X12840500Y-14732000D02*
X12940500Y-14732000D01*
X12890500Y-14936000D02*
X12890500Y-15036000D01*
X12840500Y-14986000D02*
X12940500Y-14986000D01*
X12954000Y-10872000D02*
X12954000Y-10972000D01*
X12904000Y-10922000D02*
X13004000Y-10922000D01*
X13081000Y-12046000D02*
X13081000Y-12146000D01*
X13031000Y-12096000D02*
X13131000Y-12096000D01*
X13081000Y-12296000D02*
X13081000Y-12396000D01*
X13031000Y-12346000D02*
X13131000Y-12346000D01*
X13081000Y-12496000D02*
X13081000Y-12596000D01*
X13031000Y-12546000D02*
X13131000Y-12546000D01*
X13081000Y-12746000D02*
X13081000Y-12846000D01*
X13031000Y-12796000D02*
X13131000Y-12796000D01*
X13208000Y-10872000D02*
X13208000Y-10972000D01*
X13158000Y-10922000D02*
X13258000Y-10922000D01*
X13208000Y-11126000D02*
X13208000Y-11226000D01*
X13158000Y-11176000D02*
X13258000Y-11176000D01*
X13208000Y-11380000D02*
X13208000Y-11480000D01*
X13158000Y-11430000D02*
X13258000Y-11430000D01*
X13208000Y-13412000D02*
X13208000Y-13512000D01*
X13158000Y-13462000D02*
X13258000Y-13462000D01*
X13208000Y-13666000D02*
X13208000Y-13766000D01*
X13158000Y-13716000D02*
X13258000Y-13716000D01*
X13208000Y-13920000D02*
X13208000Y-14020000D01*
X13158000Y-13970000D02*
X13258000Y-13970000D01*
X13208000Y-14174000D02*
X13208000Y-14274000D01*
X13158000Y-14224000D02*
X13258000Y-14224000D01*
X13208000Y-14428000D02*
X13208000Y-14528000D01*
X13158000Y-14478000D02*
X13258000Y-14478000D01*
X13208000Y-14682000D02*
X13208000Y-14782000D01*
X13158000Y-14732000D02*
X13258000Y-14732000D01*
X13208000Y-14936000D02*
X13208000Y-15036000D01*
X13158000Y-14986000D02*
X13258000Y-14986000D01*
D14*
X10138927Y-10964427D02*
X10138927Y-10879573D01*
X10054073Y-10879573D01*
X10054073Y-10964427D01*
X10138927Y-10964427D01*
X10138927Y-11214427D02*
X10138927Y-11129573D01*
X10054073Y-11129573D01*
X10054073Y-11214427D01*
X10138927Y-11214427D01*
X10138927Y-11464427D02*
X10138927Y-11379573D01*
X10054073Y-11379573D01*
X10054073Y-11464427D01*
X10138927Y-11464427D01*
X10138927Y-11714427D02*
X10138927Y-11629573D01*
X10054073Y-11629573D01*
X10054073Y-11714427D01*
X10138927Y-11714427D01*
D15*
X13226000Y-11904000D02*
X13341000Y-11789000D01*
X13226000Y-11674000D01*
X13111000Y-11789000D01*
X13226000Y-11904000D01*
X13226000Y-13218000D02*
X13341000Y-13103000D01*
X13226000Y-12988000D01*
X13111000Y-13103000D01*
X13226000Y-13218000D01*
D11*
X8952119Y-15555476D02*
X8952119Y-15355476D01*
X8999738Y-15355476D01*
X9028310Y-15365000D01*
X9047357Y-15384048D01*
X9056881Y-15403095D01*
X9066405Y-15441190D01*
X9066405Y-15469762D01*
X9056881Y-15507857D01*
X9047357Y-15526905D01*
X9028310Y-15545952D01*
X8999738Y-15555476D01*
X8952119Y-15555476D01*
X9152119Y-15555476D02*
X9152119Y-15422143D01*
X9152119Y-15460238D02*
X9161643Y-15441190D01*
X9171167Y-15431667D01*
X9190214Y-15422143D01*
X9209262Y-15422143D01*
X9275929Y-15555476D02*
X9275929Y-15422143D01*
X9275929Y-15355476D02*
X9266405Y-15365000D01*
X9275929Y-15374524D01*
X9285452Y-15365000D01*
X9275929Y-15355476D01*
X9275929Y-15374524D01*
X9399738Y-15555476D02*
X9380690Y-15545952D01*
X9371167Y-15526905D01*
X9371167Y-15355476D01*
X9504500Y-15555476D02*
X9485452Y-15545952D01*
X9475929Y-15526905D01*
X9475929Y-15355476D01*
X9733071Y-15555476D02*
X9733071Y-15355476D01*
X9799738Y-15498333D01*
X9866405Y-15355476D01*
X9866405Y-15555476D01*
X10047357Y-15555476D02*
X10047357Y-15450714D01*
X10037833Y-15431667D01*
X10018786Y-15422143D01*
X9980690Y-15422143D01*
X9961643Y-15431667D01*
X10047357Y-15545952D02*
X10028310Y-15555476D01*
X9980690Y-15555476D01*
X9961643Y-15545952D01*
X9952119Y-15526905D01*
X9952119Y-15507857D01*
X9961643Y-15488809D01*
X9980690Y-15479286D01*
X10028310Y-15479286D01*
X10047357Y-15469762D01*
X10142595Y-15422143D02*
X10142595Y-15622143D01*
X10142595Y-15431667D02*
X10161643Y-15422143D01*
X10199738Y-15422143D01*
X10218786Y-15431667D01*
X10228310Y-15441190D01*
X10237833Y-15460238D01*
X10237833Y-15517381D01*
X10228310Y-15536428D01*
X10218786Y-15545952D01*
X10199738Y-15555476D01*
X10161643Y-15555476D01*
X10142595Y-15545952D01*
X10323548Y-15536428D02*
X10333071Y-15545952D01*
X10323548Y-15555476D01*
X10314024Y-15545952D01*
X10323548Y-15536428D01*
X10323548Y-15555476D01*
X10323548Y-15431667D02*
X10333071Y-15441190D01*
X10323548Y-15450714D01*
X10314024Y-15441190D01*
X10323548Y-15431667D01*
X10323548Y-15450714D01*
D12*
X8654500Y-15865000D02*
X8694500Y-15905000D01*
X8694500Y-15865000D02*
X8654500Y-15905000D01*
D11*
X8990214Y-15775476D02*
X9009262Y-15775476D01*
X9028310Y-15785000D01*
X9037833Y-15794524D01*
X9047357Y-15813571D01*
X9056881Y-15851667D01*
X9056881Y-15899286D01*
X9047357Y-15937381D01*
X9037833Y-15956428D01*
X9028310Y-15965952D01*
X9009262Y-15975476D01*
X8990214Y-15975476D01*
X8971167Y-15965952D01*
X8961643Y-15956428D01*
X8952119Y-15937381D01*
X8942595Y-15899286D01*
X8942595Y-15851667D01*
X8952119Y-15813571D01*
X8961643Y-15794524D01*
X8971167Y-15785000D01*
X8990214Y-15775476D01*
X9142595Y-15956428D02*
X9152119Y-15965952D01*
X9142595Y-15975476D01*
X9133071Y-15965952D01*
X9142595Y-15956428D01*
X9142595Y-15975476D01*
X9323548Y-15842143D02*
X9323548Y-15975476D01*
X9275929Y-15765952D02*
X9228310Y-15908809D01*
X9352119Y-15908809D01*
X9466405Y-15775476D02*
X9485452Y-15775476D01*
X9504500Y-15785000D01*
X9514024Y-15794524D01*
X9523548Y-15813571D01*
X9533071Y-15851667D01*
X9533071Y-15899286D01*
X9523548Y-15937381D01*
X9514024Y-15956428D01*
X9504500Y-15965952D01*
X9485452Y-15975476D01*
X9466405Y-15975476D01*
X9447357Y-15965952D01*
X9437833Y-15956428D01*
X9428310Y-15937381D01*
X9418786Y-15899286D01*
X9418786Y-15851667D01*
X9428310Y-15813571D01*
X9437833Y-15794524D01*
X9447357Y-15785000D01*
X9466405Y-15775476D01*
X9656881Y-15775476D02*
X9675929Y-15775476D01*
X9694976Y-15785000D01*
X9704500Y-15794524D01*
X9714024Y-15813571D01*
X9723548Y-15851667D01*
X9723548Y-15899286D01*
X9714024Y-15937381D01*
X9704500Y-15956428D01*
X9694976Y-15965952D01*
X9675929Y-15975476D01*
X9656881Y-15975476D01*
X9637833Y-15965952D01*
X9628310Y-15956428D01*
X9618786Y-15937381D01*
X9609262Y-15899286D01*
X9609262Y-15851667D01*
X9618786Y-15813571D01*
X9628310Y-15794524D01*
X9637833Y-15785000D01*
X9656881Y-15775476D01*
X9809262Y-15975476D02*
X9809262Y-15842143D01*
X9809262Y-15861190D02*
X9818786Y-15851667D01*
X9837833Y-15842143D01*
X9866405Y-15842143D01*
X9885452Y-15851667D01*
X9894976Y-15870714D01*
X9894976Y-15975476D01*
X9894976Y-15870714D02*
X9904500Y-15851667D01*
X9923548Y-15842143D01*
X9952119Y-15842143D01*
X9971167Y-15851667D01*
X9980690Y-15870714D01*
X9980690Y-15975476D01*
X10075929Y-15975476D02*
X10075929Y-15842143D01*
X10075929Y-15861190D02*
X10085452Y-15851667D01*
X10104500Y-15842143D01*
X10133071Y-15842143D01*
X10152119Y-15851667D01*
X10161643Y-15870714D01*
X10161643Y-15975476D01*
X10161643Y-15870714D02*
X10171167Y-15851667D01*
X10190214Y-15842143D01*
X10218786Y-15842143D01*
X10237833Y-15851667D01*
X10247357Y-15870714D01*
X10247357Y-15975476D01*
X10637833Y-15765952D02*
X10466405Y-16023095D01*
X10894976Y-15775476D02*
X10914024Y-15775476D01*
X10933071Y-15785000D01*
X10942595Y-15794524D01*
X10952119Y-15813571D01*
X10961643Y-15851667D01*
X10961643Y-15899286D01*
X10952119Y-15937381D01*
X10942595Y-15956428D01*
X10933071Y-15965952D01*
X10914024Y-15975476D01*
X10894976Y-15975476D01*
X10875929Y-15965952D01*
X10866405Y-15956428D01*
X10856881Y-15937381D01*
X10847357Y-15899286D01*
X10847357Y-15851667D01*
X10856881Y-15813571D01*
X10866405Y-15794524D01*
X10875929Y-15785000D01*
X10894976Y-15775476D01*
X11047357Y-15956428D02*
X11056881Y-15965952D01*
X11047357Y-15975476D01*
X11037833Y-15965952D01*
X11047357Y-15956428D01*
X11047357Y-15975476D01*
X11180690Y-15775476D02*
X11199738Y-15775476D01*
X11218786Y-15785000D01*
X11228309Y-15794524D01*
X11237833Y-15813571D01*
X11247357Y-15851667D01*
X11247357Y-15899286D01*
X11237833Y-15937381D01*
X11228309Y-15956428D01*
X11218786Y-15965952D01*
X11199738Y-15975476D01*
X11180690Y-15975476D01*
X11161643Y-15965952D01*
X11152119Y-15956428D01*
X11142595Y-15937381D01*
X11133071Y-15899286D01*
X11133071Y-15851667D01*
X11142595Y-15813571D01*
X11152119Y-15794524D01*
X11161643Y-15785000D01*
X11180690Y-15775476D01*
X11437833Y-15975476D02*
X11323548Y-15975476D01*
X11380690Y-15975476D02*
X11380690Y-15775476D01*
X11361643Y-15804048D01*
X11342595Y-15823095D01*
X11323548Y-15832619D01*
X11618786Y-15775476D02*
X11523548Y-15775476D01*
X11514024Y-15870714D01*
X11523548Y-15861190D01*
X11542595Y-15851667D01*
X11590214Y-15851667D01*
X11609262Y-15861190D01*
X11618786Y-15870714D01*
X11628309Y-15889762D01*
X11628309Y-15937381D01*
X11618786Y-15956428D01*
X11609262Y-15965952D01*
X11590214Y-15975476D01*
X11542595Y-15975476D01*
X11523548Y-15965952D01*
X11514024Y-15956428D01*
X11694976Y-15775476D02*
X11828309Y-15775476D01*
X11742595Y-15975476D01*
X11894976Y-15775476D02*
X11894976Y-15813571D01*
X11971167Y-15775476D02*
X11971167Y-15813571D01*
X12266405Y-16051667D02*
X12256881Y-16042143D01*
X12237833Y-16013571D01*
X12228309Y-15994524D01*
X12218786Y-15965952D01*
X12209262Y-15918333D01*
X12209262Y-15880238D01*
X12218786Y-15832619D01*
X12228309Y-15804048D01*
X12237833Y-15785000D01*
X12256881Y-15756428D01*
X12266405Y-15746905D01*
X12371167Y-15861190D02*
X12352119Y-15851667D01*
X12342595Y-15842143D01*
X12333071Y-15823095D01*
X12333071Y-15813571D01*
X12342595Y-15794524D01*
X12352119Y-15785000D01*
X12371167Y-15775476D01*
X12409262Y-15775476D01*
X12428309Y-15785000D01*
X12437833Y-15794524D01*
X12447357Y-15813571D01*
X12447357Y-15823095D01*
X12437833Y-15842143D01*
X12428309Y-15851667D01*
X12409262Y-15861190D01*
X12371167Y-15861190D01*
X12352119Y-15870714D01*
X12342595Y-15880238D01*
X12333071Y-15899286D01*
X12333071Y-15937381D01*
X12342595Y-15956428D01*
X12352119Y-15965952D01*
X12371167Y-15975476D01*
X12409262Y-15975476D01*
X12428309Y-15965952D01*
X12437833Y-15956428D01*
X12447357Y-15937381D01*
X12447357Y-15899286D01*
X12437833Y-15880238D01*
X12428309Y-15870714D01*
X12409262Y-15861190D01*
X12514024Y-15775476D02*
X12647357Y-15775476D01*
X12561643Y-15975476D01*
X12875928Y-15975476D02*
X12875928Y-15775476D01*
X12961643Y-15975476D02*
X12961643Y-15870714D01*
X12952119Y-15851667D01*
X12933071Y-15842143D01*
X12904500Y-15842143D01*
X12885452Y-15851667D01*
X12875928Y-15861190D01*
X13085452Y-15975476D02*
X13066405Y-15965952D01*
X13056881Y-15956428D01*
X13047357Y-15937381D01*
X13047357Y-15880238D01*
X13056881Y-15861190D01*
X13066405Y-15851667D01*
X13085452Y-15842143D01*
X13114024Y-15842143D01*
X13133071Y-15851667D01*
X13142595Y-15861190D01*
X13152119Y-15880238D01*
X13152119Y-15937381D01*
X13142595Y-15956428D01*
X13133071Y-15965952D01*
X13114024Y-15975476D01*
X13085452Y-15975476D01*
X13266405Y-15975476D02*
X13247357Y-15965952D01*
X13237833Y-15946905D01*
X13237833Y-15775476D01*
X13418786Y-15965952D02*
X13399738Y-15975476D01*
X13361643Y-15975476D01*
X13342595Y-15965952D01*
X13333071Y-15946905D01*
X13333071Y-15870714D01*
X13342595Y-15851667D01*
X13361643Y-15842143D01*
X13399738Y-15842143D01*
X13418786Y-15851667D01*
X13428309Y-15870714D01*
X13428309Y-15889762D01*
X13333071Y-15908809D01*
X13504500Y-15965952D02*
X13523548Y-15975476D01*
X13561643Y-15975476D01*
X13580690Y-15965952D01*
X13590214Y-15946905D01*
X13590214Y-15937381D01*
X13580690Y-15918333D01*
X13561643Y-15908809D01*
X13533071Y-15908809D01*
X13514024Y-15899286D01*
X13504500Y-15880238D01*
X13504500Y-15870714D01*
X13514024Y-15851667D01*
X13533071Y-15842143D01*
X13561643Y-15842143D01*
X13580690Y-15851667D01*
X13656881Y-16051667D02*
X13666405Y-16042143D01*
X13685452Y-16013571D01*
X13694976Y-15994524D01*
X13704500Y-15965952D01*
X13714024Y-15918333D01*
X13714024Y-15880238D01*
X13704500Y-15832619D01*
X13694976Y-15804048D01*
X13685452Y-15785000D01*
X13666405Y-15756428D01*
X13656881Y-15746905D01*
D13*
X8694500Y-16149000D02*
G75*
G03*
X8694500Y-16149000I-40000J0D01*
G01*
D11*
X8990214Y-16039476D02*
X9009262Y-16039476D01*
X9028310Y-16049000D01*
X9037833Y-16058524D01*
X9047357Y-16077571D01*
X9056881Y-16115667D01*
X9056881Y-16163286D01*
X9047357Y-16201381D01*
X9037833Y-16220428D01*
X9028310Y-16229952D01*
X9009262Y-16239476D01*
X8990214Y-16239476D01*
X8971167Y-16229952D01*
X8961643Y-16220428D01*
X8952119Y-16201381D01*
X8942595Y-16163286D01*
X8942595Y-16115667D01*
X8952119Y-16077571D01*
X8961643Y-16058524D01*
X8971167Y-16049000D01*
X8990214Y-16039476D01*
X9142595Y-16220428D02*
X9152119Y-16229952D01*
X9142595Y-16239476D01*
X9133071Y-16229952D01*
X9142595Y-16220428D01*
X9142595Y-16239476D01*
X9266405Y-16125190D02*
X9247357Y-16115667D01*
X9237833Y-16106143D01*
X9228310Y-16087095D01*
X9228310Y-16077571D01*
X9237833Y-16058524D01*
X9247357Y-16049000D01*
X9266405Y-16039476D01*
X9304500Y-16039476D01*
X9323548Y-16049000D01*
X9333071Y-16058524D01*
X9342595Y-16077571D01*
X9342595Y-16087095D01*
X9333071Y-16106143D01*
X9323548Y-16115667D01*
X9304500Y-16125190D01*
X9266405Y-16125190D01*
X9247357Y-16134714D01*
X9237833Y-16144238D01*
X9228310Y-16163286D01*
X9228310Y-16201381D01*
X9237833Y-16220428D01*
X9247357Y-16229952D01*
X9266405Y-16239476D01*
X9304500Y-16239476D01*
X9323548Y-16229952D01*
X9333071Y-16220428D01*
X9342595Y-16201381D01*
X9342595Y-16163286D01*
X9333071Y-16144238D01*
X9323548Y-16134714D01*
X9304500Y-16125190D01*
X9466405Y-16039476D02*
X9485452Y-16039476D01*
X9504500Y-16049000D01*
X9514024Y-16058524D01*
X9523548Y-16077571D01*
X9533071Y-16115667D01*
X9533071Y-16163286D01*
X9523548Y-16201381D01*
X9514024Y-16220428D01*
X9504500Y-16229952D01*
X9485452Y-16239476D01*
X9466405Y-16239476D01*
X9447357Y-16229952D01*
X9437833Y-16220428D01*
X9428310Y-16201381D01*
X9418786Y-16163286D01*
X9418786Y-16115667D01*
X9428310Y-16077571D01*
X9437833Y-16058524D01*
X9447357Y-16049000D01*
X9466405Y-16039476D01*
X9656881Y-16039476D02*
X9675929Y-16039476D01*
X9694976Y-16049000D01*
X9704500Y-16058524D01*
X9714024Y-16077571D01*
X9723548Y-16115667D01*
X9723548Y-16163286D01*
X9714024Y-16201381D01*
X9704500Y-16220428D01*
X9694976Y-16229952D01*
X9675929Y-16239476D01*
X9656881Y-16239476D01*
X9637833Y-16229952D01*
X9628310Y-16220428D01*
X9618786Y-16201381D01*
X9609262Y-16163286D01*
X9609262Y-16115667D01*
X9618786Y-16077571D01*
X9628310Y-16058524D01*
X9637833Y-16049000D01*
X9656881Y-16039476D01*
X9809262Y-16239476D02*
X9809262Y-16106143D01*
X9809262Y-16125190D02*
X9818786Y-16115667D01*
X9837833Y-16106143D01*
X9866405Y-16106143D01*
X9885452Y-16115667D01*
X9894976Y-16134714D01*
X9894976Y-16239476D01*
X9894976Y-16134714D02*
X9904500Y-16115667D01*
X9923548Y-16106143D01*
X9952119Y-16106143D01*
X9971167Y-16115667D01*
X9980690Y-16134714D01*
X9980690Y-16239476D01*
X10075929Y-16239476D02*
X10075929Y-16106143D01*
X10075929Y-16125190D02*
X10085452Y-16115667D01*
X10104500Y-16106143D01*
X10133071Y-16106143D01*
X10152119Y-16115667D01*
X10161643Y-16134714D01*
X10161643Y-16239476D01*
X10161643Y-16134714D02*
X10171167Y-16115667D01*
X10190214Y-16106143D01*
X10218786Y-16106143D01*
X10237833Y-16115667D01*
X10247357Y-16134714D01*
X10247357Y-16239476D01*
X10637833Y-16029952D02*
X10466405Y-16287095D01*
X10894976Y-16039476D02*
X10914024Y-16039476D01*
X10933071Y-16049000D01*
X10942595Y-16058524D01*
X10952119Y-16077571D01*
X10961643Y-16115667D01*
X10961643Y-16163286D01*
X10952119Y-16201381D01*
X10942595Y-16220428D01*
X10933071Y-16229952D01*
X10914024Y-16239476D01*
X10894976Y-16239476D01*
X10875929Y-16229952D01*
X10866405Y-16220428D01*
X10856881Y-16201381D01*
X10847357Y-16163286D01*
X10847357Y-16115667D01*
X10856881Y-16077571D01*
X10866405Y-16058524D01*
X10875929Y-16049000D01*
X10894976Y-16039476D01*
X11047357Y-16220428D02*
X11056881Y-16229952D01*
X11047357Y-16239476D01*
X11037833Y-16229952D01*
X11047357Y-16220428D01*
X11047357Y-16239476D01*
X11180690Y-16039476D02*
X11199738Y-16039476D01*
X11218786Y-16049000D01*
X11228309Y-16058524D01*
X11237833Y-16077571D01*
X11247357Y-16115667D01*
X11247357Y-16163286D01*
X11237833Y-16201381D01*
X11228309Y-16220428D01*
X11218786Y-16229952D01*
X11199738Y-16239476D01*
X11180690Y-16239476D01*
X11161643Y-16229952D01*
X11152119Y-16220428D01*
X11142595Y-16201381D01*
X11133071Y-16163286D01*
X11133071Y-16115667D01*
X11142595Y-16077571D01*
X11152119Y-16058524D01*
X11161643Y-16049000D01*
X11180690Y-16039476D01*
X11314024Y-16039476D02*
X11437833Y-16039476D01*
X11371167Y-16115667D01*
X11399738Y-16115667D01*
X11418786Y-16125190D01*
X11428309Y-16134714D01*
X11437833Y-16153762D01*
X11437833Y-16201381D01*
X11428309Y-16220428D01*
X11418786Y-16229952D01*
X11399738Y-16239476D01*
X11342595Y-16239476D01*
X11323548Y-16229952D01*
X11314024Y-16220428D01*
X11628309Y-16239476D02*
X11514024Y-16239476D01*
X11571167Y-16239476D02*
X11571167Y-16039476D01*
X11552119Y-16068048D01*
X11533071Y-16087095D01*
X11514024Y-16096619D01*
X11809262Y-16039476D02*
X11714024Y-16039476D01*
X11704500Y-16134714D01*
X11714024Y-16125190D01*
X11733071Y-16115667D01*
X11780690Y-16115667D01*
X11799738Y-16125190D01*
X11809262Y-16134714D01*
X11818786Y-16153762D01*
X11818786Y-16201381D01*
X11809262Y-16220428D01*
X11799738Y-16229952D01*
X11780690Y-16239476D01*
X11733071Y-16239476D01*
X11714024Y-16229952D01*
X11704500Y-16220428D01*
X11894976Y-16039476D02*
X11894976Y-16077571D01*
X11971167Y-16039476D02*
X11971167Y-16077571D01*
X12266405Y-16315667D02*
X12256881Y-16306143D01*
X12237833Y-16277571D01*
X12228309Y-16258524D01*
X12218786Y-16229952D01*
X12209262Y-16182333D01*
X12209262Y-16144238D01*
X12218786Y-16096619D01*
X12228309Y-16068048D01*
X12237833Y-16049000D01*
X12256881Y-16020428D01*
X12266405Y-16010905D01*
X12428309Y-16106143D02*
X12428309Y-16239476D01*
X12380690Y-16029952D02*
X12333071Y-16172809D01*
X12456881Y-16172809D01*
X12685452Y-16239476D02*
X12685452Y-16039476D01*
X12771167Y-16239476D02*
X12771167Y-16134714D01*
X12761643Y-16115667D01*
X12742595Y-16106143D01*
X12714024Y-16106143D01*
X12694976Y-16115667D01*
X12685452Y-16125190D01*
X12894976Y-16239476D02*
X12875928Y-16229952D01*
X12866405Y-16220428D01*
X12856881Y-16201381D01*
X12856881Y-16144238D01*
X12866405Y-16125190D01*
X12875928Y-16115667D01*
X12894976Y-16106143D01*
X12923548Y-16106143D01*
X12942595Y-16115667D01*
X12952119Y-16125190D01*
X12961643Y-16144238D01*
X12961643Y-16201381D01*
X12952119Y-16220428D01*
X12942595Y-16229952D01*
X12923548Y-16239476D01*
X12894976Y-16239476D01*
X13075928Y-16239476D02*
X13056881Y-16229952D01*
X13047357Y-16210905D01*
X13047357Y-16039476D01*
X13228309Y-16229952D02*
X13209262Y-16239476D01*
X13171167Y-16239476D01*
X13152119Y-16229952D01*
X13142595Y-16210905D01*
X13142595Y-16134714D01*
X13152119Y-16115667D01*
X13171167Y-16106143D01*
X13209262Y-16106143D01*
X13228309Y-16115667D01*
X13237833Y-16134714D01*
X13237833Y-16153762D01*
X13142595Y-16172809D01*
X13314024Y-16229952D02*
X13333071Y-16239476D01*
X13371167Y-16239476D01*
X13390214Y-16229952D01*
X13399738Y-16210905D01*
X13399738Y-16201381D01*
X13390214Y-16182333D01*
X13371167Y-16172809D01*
X13342595Y-16172809D01*
X13323548Y-16163286D01*
X13314024Y-16144238D01*
X13314024Y-16134714D01*
X13323548Y-16115667D01*
X13342595Y-16106143D01*
X13371167Y-16106143D01*
X13390214Y-16115667D01*
X13466405Y-16315667D02*
X13475928Y-16306143D01*
X13494976Y-16277571D01*
X13504500Y-16258524D01*
X13514024Y-16229952D01*
X13523548Y-16182333D01*
X13523548Y-16144238D01*
X13514024Y-16096619D01*
X13504500Y-16068048D01*
X13494976Y-16049000D01*
X13475928Y-16020428D01*
X13466405Y-16010905D01*
D10*
X8644500Y-16363000D02*
X8644500Y-16463000D01*
X8594500Y-16413000D02*
X8694500Y-16413000D01*
D11*
X9056881Y-16503476D02*
X8942595Y-16503476D01*
X8999738Y-16503476D02*
X8999738Y-16303476D01*
X8980690Y-16332048D01*
X8961643Y-16351095D01*
X8942595Y-16360619D01*
X9142595Y-16484428D02*
X9152119Y-16493952D01*
X9142595Y-16503476D01*
X9133071Y-16493952D01*
X9142595Y-16484428D01*
X9142595Y-16503476D01*
X9275929Y-16303476D02*
X9294976Y-16303476D01*
X9314024Y-16313000D01*
X9323548Y-16322524D01*
X9333071Y-16341571D01*
X9342595Y-16379667D01*
X9342595Y-16427286D01*
X9333071Y-16465381D01*
X9323548Y-16484428D01*
X9314024Y-16493952D01*
X9294976Y-16503476D01*
X9275929Y-16503476D01*
X9256881Y-16493952D01*
X9247357Y-16484428D01*
X9237833Y-16465381D01*
X9228310Y-16427286D01*
X9228310Y-16379667D01*
X9237833Y-16341571D01*
X9247357Y-16322524D01*
X9256881Y-16313000D01*
X9275929Y-16303476D01*
X9466405Y-16303476D02*
X9485452Y-16303476D01*
X9504500Y-16313000D01*
X9514024Y-16322524D01*
X9523548Y-16341571D01*
X9533071Y-16379667D01*
X9533071Y-16427286D01*
X9523548Y-16465381D01*
X9514024Y-16484428D01*
X9504500Y-16493952D01*
X9485452Y-16503476D01*
X9466405Y-16503476D01*
X9447357Y-16493952D01*
X9437833Y-16484428D01*
X9428310Y-16465381D01*
X9418786Y-16427286D01*
X9418786Y-16379667D01*
X9428310Y-16341571D01*
X9437833Y-16322524D01*
X9447357Y-16313000D01*
X9466405Y-16303476D01*
X9656881Y-16303476D02*
X9675929Y-16303476D01*
X9694976Y-16313000D01*
X9704500Y-16322524D01*
X9714024Y-16341571D01*
X9723548Y-16379667D01*
X9723548Y-16427286D01*
X9714024Y-16465381D01*
X9704500Y-16484428D01*
X9694976Y-16493952D01*
X9675929Y-16503476D01*
X9656881Y-16503476D01*
X9637833Y-16493952D01*
X9628310Y-16484428D01*
X9618786Y-16465381D01*
X9609262Y-16427286D01*
X9609262Y-16379667D01*
X9618786Y-16341571D01*
X9628310Y-16322524D01*
X9637833Y-16313000D01*
X9656881Y-16303476D01*
X9809262Y-16503476D02*
X9809262Y-16370143D01*
X9809262Y-16389190D02*
X9818786Y-16379667D01*
X9837833Y-16370143D01*
X9866405Y-16370143D01*
X9885452Y-16379667D01*
X9894976Y-16398714D01*
X9894976Y-16503476D01*
X9894976Y-16398714D02*
X9904500Y-16379667D01*
X9923548Y-16370143D01*
X9952119Y-16370143D01*
X9971167Y-16379667D01*
X9980690Y-16398714D01*
X9980690Y-16503476D01*
X10075929Y-16503476D02*
X10075929Y-16370143D01*
X10075929Y-16389190D02*
X10085452Y-16379667D01*
X10104500Y-16370143D01*
X10133071Y-16370143D01*
X10152119Y-16379667D01*
X10161643Y-16398714D01*
X10161643Y-16503476D01*
X10161643Y-16398714D02*
X10171167Y-16379667D01*
X10190214Y-16370143D01*
X10218786Y-16370143D01*
X10237833Y-16379667D01*
X10247357Y-16398714D01*
X10247357Y-16503476D01*
X10637833Y-16293952D02*
X10466405Y-16551095D01*
X10894976Y-16303476D02*
X10914024Y-16303476D01*
X10933071Y-16313000D01*
X10942595Y-16322524D01*
X10952119Y-16341571D01*
X10961643Y-16379667D01*
X10961643Y-16427286D01*
X10952119Y-16465381D01*
X10942595Y-16484428D01*
X10933071Y-16493952D01*
X10914024Y-16503476D01*
X10894976Y-16503476D01*
X10875929Y-16493952D01*
X10866405Y-16484428D01*
X10856881Y-16465381D01*
X10847357Y-16427286D01*
X10847357Y-16379667D01*
X10856881Y-16341571D01*
X10866405Y-16322524D01*
X10875929Y-16313000D01*
X10894976Y-16303476D01*
X11047357Y-16484428D02*
X11056881Y-16493952D01*
X11047357Y-16503476D01*
X11037833Y-16493952D01*
X11047357Y-16484428D01*
X11047357Y-16503476D01*
X11180690Y-16303476D02*
X11199738Y-16303476D01*
X11218786Y-16313000D01*
X11228309Y-16322524D01*
X11237833Y-16341571D01*
X11247357Y-16379667D01*
X11247357Y-16427286D01*
X11237833Y-16465381D01*
X11228309Y-16484428D01*
X11218786Y-16493952D01*
X11199738Y-16503476D01*
X11180690Y-16503476D01*
X11161643Y-16493952D01*
X11152119Y-16484428D01*
X11142595Y-16465381D01*
X11133071Y-16427286D01*
X11133071Y-16379667D01*
X11142595Y-16341571D01*
X11152119Y-16322524D01*
X11161643Y-16313000D01*
X11180690Y-16303476D01*
X11314024Y-16303476D02*
X11437833Y-16303476D01*
X11371167Y-16379667D01*
X11399738Y-16379667D01*
X11418786Y-16389190D01*
X11428309Y-16398714D01*
X11437833Y-16417762D01*
X11437833Y-16465381D01*
X11428309Y-16484428D01*
X11418786Y-16493952D01*
X11399738Y-16503476D01*
X11342595Y-16503476D01*
X11323548Y-16493952D01*
X11314024Y-16484428D01*
X11533071Y-16503476D02*
X11571167Y-16503476D01*
X11590214Y-16493952D01*
X11599738Y-16484428D01*
X11618786Y-16455857D01*
X11628309Y-16417762D01*
X11628309Y-16341571D01*
X11618786Y-16322524D01*
X11609262Y-16313000D01*
X11590214Y-16303476D01*
X11552119Y-16303476D01*
X11533071Y-16313000D01*
X11523548Y-16322524D01*
X11514024Y-16341571D01*
X11514024Y-16389190D01*
X11523548Y-16408238D01*
X11533071Y-16417762D01*
X11552119Y-16427286D01*
X11590214Y-16427286D01*
X11609262Y-16417762D01*
X11618786Y-16408238D01*
X11628309Y-16389190D01*
X11799738Y-16370143D02*
X11799738Y-16503476D01*
X11752119Y-16293952D02*
X11704500Y-16436809D01*
X11828309Y-16436809D01*
X11894976Y-16303476D02*
X11894976Y-16341571D01*
X11971167Y-16303476D02*
X11971167Y-16341571D01*
X12266405Y-16579667D02*
X12256881Y-16570143D01*
X12237833Y-16541571D01*
X12228309Y-16522524D01*
X12218786Y-16493952D01*
X12209262Y-16446333D01*
X12209262Y-16408238D01*
X12218786Y-16360619D01*
X12228309Y-16332048D01*
X12237833Y-16313000D01*
X12256881Y-16284428D01*
X12266405Y-16274905D01*
X12447357Y-16503476D02*
X12333071Y-16503476D01*
X12390214Y-16503476D02*
X12390214Y-16303476D01*
X12371167Y-16332048D01*
X12352119Y-16351095D01*
X12333071Y-16360619D01*
X12523548Y-16322524D02*
X12533071Y-16313000D01*
X12552119Y-16303476D01*
X12599738Y-16303476D01*
X12618786Y-16313000D01*
X12628309Y-16322524D01*
X12637833Y-16341571D01*
X12637833Y-16360619D01*
X12628309Y-16389190D01*
X12514024Y-16503476D01*
X12637833Y-16503476D01*
X12828309Y-16503476D02*
X12714024Y-16503476D01*
X12771167Y-16503476D02*
X12771167Y-16303476D01*
X12752119Y-16332048D01*
X12733071Y-16351095D01*
X12714024Y-16360619D01*
X13066405Y-16503476D02*
X13066405Y-16303476D01*
X13152119Y-16503476D02*
X13152119Y-16398714D01*
X13142595Y-16379667D01*
X13123548Y-16370143D01*
X13094976Y-16370143D01*
X13075928Y-16379667D01*
X13066405Y-16389190D01*
X13275928Y-16503476D02*
X13256881Y-16493952D01*
X13247357Y-16484428D01*
X13237833Y-16465381D01*
X13237833Y-16408238D01*
X13247357Y-16389190D01*
X13256881Y-16379667D01*
X13275928Y-16370143D01*
X13304500Y-16370143D01*
X13323548Y-16379667D01*
X13333071Y-16389190D01*
X13342595Y-16408238D01*
X13342595Y-16465381D01*
X13333071Y-16484428D01*
X13323548Y-16493952D01*
X13304500Y-16503476D01*
X13275928Y-16503476D01*
X13456881Y-16503476D02*
X13437833Y-16493952D01*
X13428309Y-16474905D01*
X13428309Y-16303476D01*
X13609262Y-16493952D02*
X13590214Y-16503476D01*
X13552119Y-16503476D01*
X13533071Y-16493952D01*
X13523548Y-16474905D01*
X13523548Y-16398714D01*
X13533071Y-16379667D01*
X13552119Y-16370143D01*
X13590214Y-16370143D01*
X13609262Y-16379667D01*
X13618786Y-16398714D01*
X13618786Y-16417762D01*
X13523548Y-16436809D01*
X13694976Y-16493952D02*
X13714024Y-16503476D01*
X13752119Y-16503476D01*
X13771167Y-16493952D01*
X13780690Y-16474905D01*
X13780690Y-16465381D01*
X13771167Y-16446333D01*
X13752119Y-16436809D01*
X13723548Y-16436809D01*
X13704500Y-16427286D01*
X13694976Y-16408238D01*
X13694976Y-16398714D01*
X13704500Y-16379667D01*
X13723548Y-16370143D01*
X13752119Y-16370143D01*
X13771167Y-16379667D01*
X13847357Y-16579667D02*
X13856881Y-16570143D01*
X13875928Y-16541571D01*
X13885452Y-16522524D01*
X13894976Y-16493952D01*
X13904500Y-16446333D01*
X13904500Y-16408238D01*
X13894976Y-16360619D01*
X13885452Y-16332048D01*
X13875928Y-16313000D01*
X13856881Y-16284428D01*
X13847357Y-16274905D01*
D14*
X8676927Y-16719427D02*
X8676927Y-16634573D01*
X8592073Y-16634573D01*
X8592073Y-16719427D01*
X8676927Y-16719427D01*
D11*
X9056881Y-16767476D02*
X8942595Y-16767476D01*
X8999738Y-16767476D02*
X8999738Y-16567476D01*
X8980690Y-16596048D01*
X8961643Y-16615095D01*
X8942595Y-16624619D01*
X9142595Y-16748428D02*
X9152119Y-16757952D01*
X9142595Y-16767476D01*
X9133071Y-16757952D01*
X9142595Y-16748428D01*
X9142595Y-16767476D01*
X9228310Y-16586524D02*
X9237833Y-16577000D01*
X9256881Y-16567476D01*
X9304500Y-16567476D01*
X9323548Y-16577000D01*
X9333071Y-16586524D01*
X9342595Y-16605571D01*
X9342595Y-16624619D01*
X9333071Y-16653190D01*
X9218786Y-16767476D01*
X9342595Y-16767476D01*
X9466405Y-16567476D02*
X9485452Y-16567476D01*
X9504500Y-16577000D01*
X9514024Y-16586524D01*
X9523548Y-16605571D01*
X9533071Y-16643667D01*
X9533071Y-16691286D01*
X9523548Y-16729381D01*
X9514024Y-16748428D01*
X9504500Y-16757952D01*
X9485452Y-16767476D01*
X9466405Y-16767476D01*
X9447357Y-16757952D01*
X9437833Y-16748428D01*
X9428310Y-16729381D01*
X9418786Y-16691286D01*
X9418786Y-16643667D01*
X9428310Y-16605571D01*
X9437833Y-16586524D01*
X9447357Y-16577000D01*
X9466405Y-16567476D01*
X9656881Y-16567476D02*
X9675929Y-16567476D01*
X9694976Y-16577000D01*
X9704500Y-16586524D01*
X9714024Y-16605571D01*
X9723548Y-16643667D01*
X9723548Y-16691286D01*
X9714024Y-16729381D01*
X9704500Y-16748428D01*
X9694976Y-16757952D01*
X9675929Y-16767476D01*
X9656881Y-16767476D01*
X9637833Y-16757952D01*
X9628310Y-16748428D01*
X9618786Y-16729381D01*
X9609262Y-16691286D01*
X9609262Y-16643667D01*
X9618786Y-16605571D01*
X9628310Y-16586524D01*
X9637833Y-16577000D01*
X9656881Y-16567476D01*
X9809262Y-16767476D02*
X9809262Y-16634143D01*
X9809262Y-16653190D02*
X9818786Y-16643667D01*
X9837833Y-16634143D01*
X9866405Y-16634143D01*
X9885452Y-16643667D01*
X9894976Y-16662714D01*
X9894976Y-16767476D01*
X9894976Y-16662714D02*
X9904500Y-16643667D01*
X9923548Y-16634143D01*
X9952119Y-16634143D01*
X9971167Y-16643667D01*
X9980690Y-16662714D01*
X9980690Y-16767476D01*
X10075929Y-16767476D02*
X10075929Y-16634143D01*
X10075929Y-16653190D02*
X10085452Y-16643667D01*
X10104500Y-16634143D01*
X10133071Y-16634143D01*
X10152119Y-16643667D01*
X10161643Y-16662714D01*
X10161643Y-16767476D01*
X10161643Y-16662714D02*
X10171167Y-16643667D01*
X10190214Y-16634143D01*
X10218786Y-16634143D01*
X10237833Y-16643667D01*
X10247357Y-16662714D01*
X10247357Y-16767476D01*
X10637833Y-16557952D02*
X10466405Y-16815095D01*
X10894976Y-16567476D02*
X10914024Y-16567476D01*
X10933071Y-16577000D01*
X10942595Y-16586524D01*
X10952119Y-16605571D01*
X10961643Y-16643667D01*
X10961643Y-16691286D01*
X10952119Y-16729381D01*
X10942595Y-16748428D01*
X10933071Y-16757952D01*
X10914024Y-16767476D01*
X10894976Y-16767476D01*
X10875929Y-16757952D01*
X10866405Y-16748428D01*
X10856881Y-16729381D01*
X10847357Y-16691286D01*
X10847357Y-16643667D01*
X10856881Y-16605571D01*
X10866405Y-16586524D01*
X10875929Y-16577000D01*
X10894976Y-16567476D01*
X11047357Y-16748428D02*
X11056881Y-16757952D01*
X11047357Y-16767476D01*
X11037833Y-16757952D01*
X11047357Y-16748428D01*
X11047357Y-16767476D01*
X11180690Y-16567476D02*
X11199738Y-16567476D01*
X11218786Y-16577000D01*
X11228309Y-16586524D01*
X11237833Y-16605571D01*
X11247357Y-16643667D01*
X11247357Y-16691286D01*
X11237833Y-16729381D01*
X11228309Y-16748428D01*
X11218786Y-16757952D01*
X11199738Y-16767476D01*
X11180690Y-16767476D01*
X11161643Y-16757952D01*
X11152119Y-16748428D01*
X11142595Y-16729381D01*
X11133071Y-16691286D01*
X11133071Y-16643667D01*
X11142595Y-16605571D01*
X11152119Y-16586524D01*
X11161643Y-16577000D01*
X11180690Y-16567476D01*
X11418786Y-16634143D02*
X11418786Y-16767476D01*
X11371167Y-16557952D02*
X11323548Y-16700809D01*
X11447357Y-16700809D01*
X11504500Y-16567476D02*
X11637833Y-16567476D01*
X11552119Y-16767476D01*
X11704500Y-16586524D02*
X11714024Y-16577000D01*
X11733071Y-16567476D01*
X11780690Y-16567476D01*
X11799738Y-16577000D01*
X11809262Y-16586524D01*
X11818786Y-16605571D01*
X11818786Y-16624619D01*
X11809262Y-16653190D01*
X11694976Y-16767476D01*
X11818786Y-16767476D01*
X11894976Y-16567476D02*
X11894976Y-16605571D01*
X11971167Y-16567476D02*
X11971167Y-16605571D01*
X12266405Y-16843667D02*
X12256881Y-16834143D01*
X12237833Y-16805571D01*
X12228309Y-16786524D01*
X12218786Y-16757952D01*
X12209262Y-16710333D01*
X12209262Y-16672238D01*
X12218786Y-16624619D01*
X12228309Y-16596048D01*
X12237833Y-16577000D01*
X12256881Y-16548428D01*
X12266405Y-16538905D01*
X12428309Y-16634143D02*
X12428309Y-16767476D01*
X12380690Y-16557952D02*
X12333071Y-16700809D01*
X12456881Y-16700809D01*
X12685452Y-16767476D02*
X12685452Y-16567476D01*
X12771167Y-16767476D02*
X12771167Y-16662714D01*
X12761643Y-16643667D01*
X12742595Y-16634143D01*
X12714024Y-16634143D01*
X12694976Y-16643667D01*
X12685452Y-16653190D01*
X12894976Y-16767476D02*
X12875928Y-16757952D01*
X12866405Y-16748428D01*
X12856881Y-16729381D01*
X12856881Y-16672238D01*
X12866405Y-16653190D01*
X12875928Y-16643667D01*
X12894976Y-16634143D01*
X12923548Y-16634143D01*
X12942595Y-16643667D01*
X12952119Y-16653190D01*
X12961643Y-16672238D01*
X12961643Y-16729381D01*
X12952119Y-16748428D01*
X12942595Y-16757952D01*
X12923548Y-16767476D01*
X12894976Y-16767476D01*
X13075928Y-16767476D02*
X13056881Y-16757952D01*
X13047357Y-16738905D01*
X13047357Y-16567476D01*
X13228309Y-16757952D02*
X13209262Y-16767476D01*
X13171167Y-16767476D01*
X13152119Y-16757952D01*
X13142595Y-16738905D01*
X13142595Y-16662714D01*
X13152119Y-16643667D01*
X13171167Y-16634143D01*
X13209262Y-16634143D01*
X13228309Y-16643667D01*
X13237833Y-16662714D01*
X13237833Y-16681762D01*
X13142595Y-16700809D01*
X13314024Y-16757952D02*
X13333071Y-16767476D01*
X13371167Y-16767476D01*
X13390214Y-16757952D01*
X13399738Y-16738905D01*
X13399738Y-16729381D01*
X13390214Y-16710333D01*
X13371167Y-16700809D01*
X13342595Y-16700809D01*
X13323548Y-16691286D01*
X13314024Y-16672238D01*
X13314024Y-16662714D01*
X13323548Y-16643667D01*
X13342595Y-16634143D01*
X13371167Y-16634143D01*
X13390214Y-16643667D01*
X13466405Y-16843667D02*
X13475928Y-16834143D01*
X13494976Y-16805571D01*
X13504500Y-16786524D01*
X13514024Y-16757952D01*
X13523548Y-16710333D01*
X13523548Y-16672238D01*
X13514024Y-16624619D01*
X13504500Y-16596048D01*
X13494976Y-16577000D01*
X13475928Y-16548428D01*
X13466405Y-16538905D01*
X8594500Y-17041000D02*
X8694500Y-16941000D01*
X8594500Y-16841000D01*
X8494500Y-16941000D01*
X8594500Y-17041000D01*
X8942595Y-16850524D02*
X8952119Y-16841000D01*
X8971167Y-16831476D01*
X9018786Y-16831476D01*
X9037833Y-16841000D01*
X9047357Y-16850524D01*
X9056881Y-16869571D01*
X9056881Y-16888619D01*
X9047357Y-16917190D01*
X8933071Y-17031476D01*
X9056881Y-17031476D01*
X9142595Y-17012429D02*
X9152119Y-17021952D01*
X9142595Y-17031476D01*
X9133071Y-17021952D01*
X9142595Y-17012429D01*
X9142595Y-17031476D01*
X9218786Y-16831476D02*
X9342595Y-16831476D01*
X9275929Y-16907667D01*
X9304500Y-16907667D01*
X9323548Y-16917190D01*
X9333071Y-16926714D01*
X9342595Y-16945762D01*
X9342595Y-16993381D01*
X9333071Y-17012429D01*
X9323548Y-17021952D01*
X9304500Y-17031476D01*
X9247357Y-17031476D01*
X9228310Y-17021952D01*
X9218786Y-17012429D01*
X9466405Y-16831476D02*
X9485452Y-16831476D01*
X9504500Y-16841000D01*
X9514024Y-16850524D01*
X9523548Y-16869571D01*
X9533071Y-16907667D01*
X9533071Y-16955286D01*
X9523548Y-16993381D01*
X9514024Y-17012429D01*
X9504500Y-17021952D01*
X9485452Y-17031476D01*
X9466405Y-17031476D01*
X9447357Y-17021952D01*
X9437833Y-17012429D01*
X9428310Y-16993381D01*
X9418786Y-16955286D01*
X9418786Y-16907667D01*
X9428310Y-16869571D01*
X9437833Y-16850524D01*
X9447357Y-16841000D01*
X9466405Y-16831476D01*
X9656881Y-16831476D02*
X9675929Y-16831476D01*
X9694976Y-16841000D01*
X9704500Y-16850524D01*
X9714024Y-16869571D01*
X9723548Y-16907667D01*
X9723548Y-16955286D01*
X9714024Y-16993381D01*
X9704500Y-17012429D01*
X9694976Y-17021952D01*
X9675929Y-17031476D01*
X9656881Y-17031476D01*
X9637833Y-17021952D01*
X9628310Y-17012429D01*
X9618786Y-16993381D01*
X9609262Y-16955286D01*
X9609262Y-16907667D01*
X9618786Y-16869571D01*
X9628310Y-16850524D01*
X9637833Y-16841000D01*
X9656881Y-16831476D01*
X9809262Y-17031476D02*
X9809262Y-16898143D01*
X9809262Y-16917190D02*
X9818786Y-16907667D01*
X9837833Y-16898143D01*
X9866405Y-16898143D01*
X9885452Y-16907667D01*
X9894976Y-16926714D01*
X9894976Y-17031476D01*
X9894976Y-16926714D02*
X9904500Y-16907667D01*
X9923548Y-16898143D01*
X9952119Y-16898143D01*
X9971167Y-16907667D01*
X9980690Y-16926714D01*
X9980690Y-17031476D01*
X10075929Y-17031476D02*
X10075929Y-16898143D01*
X10075929Y-16917190D02*
X10085452Y-16907667D01*
X10104500Y-16898143D01*
X10133071Y-16898143D01*
X10152119Y-16907667D01*
X10161643Y-16926714D01*
X10161643Y-17031476D01*
X10161643Y-16926714D02*
X10171167Y-16907667D01*
X10190214Y-16898143D01*
X10218786Y-16898143D01*
X10237833Y-16907667D01*
X10247357Y-16926714D01*
X10247357Y-17031476D01*
X10637833Y-16821952D02*
X10466405Y-17079095D01*
X10894976Y-16831476D02*
X10914024Y-16831476D01*
X10933071Y-16841000D01*
X10942595Y-16850524D01*
X10952119Y-16869571D01*
X10961643Y-16907667D01*
X10961643Y-16955286D01*
X10952119Y-16993381D01*
X10942595Y-17012429D01*
X10933071Y-17021952D01*
X10914024Y-17031476D01*
X10894976Y-17031476D01*
X10875929Y-17021952D01*
X10866405Y-17012429D01*
X10856881Y-16993381D01*
X10847357Y-16955286D01*
X10847357Y-16907667D01*
X10856881Y-16869571D01*
X10866405Y-16850524D01*
X10875929Y-16841000D01*
X10894976Y-16831476D01*
X11047357Y-17012429D02*
X11056881Y-17021952D01*
X11047357Y-17031476D01*
X11037833Y-17021952D01*
X11047357Y-17012429D01*
X11047357Y-17031476D01*
X11180690Y-16831476D02*
X11199738Y-16831476D01*
X11218786Y-16841000D01*
X11228309Y-16850524D01*
X11237833Y-16869571D01*
X11247357Y-16907667D01*
X11247357Y-16955286D01*
X11237833Y-16993381D01*
X11228309Y-17012429D01*
X11218786Y-17021952D01*
X11199738Y-17031476D01*
X11180690Y-17031476D01*
X11161643Y-17021952D01*
X11152119Y-17012429D01*
X11142595Y-16993381D01*
X11133071Y-16955286D01*
X11133071Y-16907667D01*
X11142595Y-16869571D01*
X11152119Y-16850524D01*
X11161643Y-16841000D01*
X11180690Y-16831476D01*
X11342595Y-17031476D02*
X11380690Y-17031476D01*
X11399738Y-17021952D01*
X11409262Y-17012429D01*
X11428309Y-16983857D01*
X11437833Y-16945762D01*
X11437833Y-16869571D01*
X11428309Y-16850524D01*
X11418786Y-16841000D01*
X11399738Y-16831476D01*
X11361643Y-16831476D01*
X11342595Y-16841000D01*
X11333071Y-16850524D01*
X11323548Y-16869571D01*
X11323548Y-16917190D01*
X11333071Y-16936238D01*
X11342595Y-16945762D01*
X11361643Y-16955286D01*
X11399738Y-16955286D01*
X11418786Y-16945762D01*
X11428309Y-16936238D01*
X11437833Y-16917190D01*
X11561643Y-16831476D02*
X11580690Y-16831476D01*
X11599738Y-16841000D01*
X11609262Y-16850524D01*
X11618786Y-16869571D01*
X11628309Y-16907667D01*
X11628309Y-16955286D01*
X11618786Y-16993381D01*
X11609262Y-17012429D01*
X11599738Y-17021952D01*
X11580690Y-17031476D01*
X11561643Y-17031476D01*
X11542595Y-17021952D01*
X11533071Y-17012429D01*
X11523548Y-16993381D01*
X11514024Y-16955286D01*
X11514024Y-16907667D01*
X11523548Y-16869571D01*
X11533071Y-16850524D01*
X11542595Y-16841000D01*
X11561643Y-16831476D01*
X11799738Y-16831476D02*
X11761643Y-16831476D01*
X11742595Y-16841000D01*
X11733071Y-16850524D01*
X11714024Y-16879095D01*
X11704500Y-16917190D01*
X11704500Y-16993381D01*
X11714024Y-17012429D01*
X11723548Y-17021952D01*
X11742595Y-17031476D01*
X11780690Y-17031476D01*
X11799738Y-17021952D01*
X11809262Y-17012429D01*
X11818786Y-16993381D01*
X11818786Y-16945762D01*
X11809262Y-16926714D01*
X11799738Y-16917190D01*
X11780690Y-16907667D01*
X11742595Y-16907667D01*
X11723548Y-16917190D01*
X11714024Y-16926714D01*
X11704500Y-16945762D01*
X11894976Y-16831476D02*
X11894976Y-16869571D01*
X11971167Y-16831476D02*
X11971167Y-16869571D01*
X12266405Y-17107667D02*
X12256881Y-17098143D01*
X12237833Y-17069571D01*
X12228309Y-17050524D01*
X12218786Y-17021952D01*
X12209262Y-16974333D01*
X12209262Y-16936238D01*
X12218786Y-16888619D01*
X12228309Y-16860048D01*
X12237833Y-16841000D01*
X12256881Y-16812429D01*
X12266405Y-16802905D01*
X12333071Y-16850524D02*
X12342595Y-16841000D01*
X12361643Y-16831476D01*
X12409262Y-16831476D01*
X12428309Y-16841000D01*
X12437833Y-16850524D01*
X12447357Y-16869571D01*
X12447357Y-16888619D01*
X12437833Y-16917190D01*
X12323548Y-17031476D01*
X12447357Y-17031476D01*
X12685452Y-17031476D02*
X12685452Y-16831476D01*
X12771167Y-17031476D02*
X12771167Y-16926714D01*
X12761643Y-16907667D01*
X12742595Y-16898143D01*
X12714024Y-16898143D01*
X12694976Y-16907667D01*
X12685452Y-16917190D01*
X12894976Y-17031476D02*
X12875928Y-17021952D01*
X12866405Y-17012429D01*
X12856881Y-16993381D01*
X12856881Y-16936238D01*
X12866405Y-16917190D01*
X12875928Y-16907667D01*
X12894976Y-16898143D01*
X12923548Y-16898143D01*
X12942595Y-16907667D01*
X12952119Y-16917190D01*
X12961643Y-16936238D01*
X12961643Y-16993381D01*
X12952119Y-17012429D01*
X12942595Y-17021952D01*
X12923548Y-17031476D01*
X12894976Y-17031476D01*
X13075928Y-17031476D02*
X13056881Y-17021952D01*
X13047357Y-17002905D01*
X13047357Y-16831476D01*
X13228309Y-17021952D02*
X13209262Y-17031476D01*
X13171167Y-17031476D01*
X13152119Y-17021952D01*
X13142595Y-17002905D01*
X13142595Y-16926714D01*
X13152119Y-16907667D01*
X13171167Y-16898143D01*
X13209262Y-16898143D01*
X13228309Y-16907667D01*
X13237833Y-16926714D01*
X13237833Y-16945762D01*
X13142595Y-16964810D01*
X13314024Y-17021952D02*
X13333071Y-17031476D01*
X13371167Y-17031476D01*
X13390214Y-17021952D01*
X13399738Y-17002905D01*
X13399738Y-16993381D01*
X13390214Y-16974333D01*
X13371167Y-16964810D01*
X13342595Y-16964810D01*
X13323548Y-16955286D01*
X13314024Y-16936238D01*
X13314024Y-16926714D01*
X13323548Y-16907667D01*
X13342595Y-16898143D01*
X13371167Y-16898143D01*
X13390214Y-16907667D01*
X13466405Y-17107667D02*
X13475928Y-17098143D01*
X13494976Y-17069571D01*
X13504500Y-17050524D01*
X13514024Y-17021952D01*
X13523548Y-16974333D01*
X13523548Y-16936238D01*
X13514024Y-16888619D01*
X13504500Y-16860048D01*
X13494976Y-16841000D01*
X13475928Y-16812429D01*
X13466405Y-16802905D01*
M02*
