G04 #@! TF.GenerationSoftware,KiCad,Pcbnew,6.0.8-f2edbf62ab~116~ubuntu22.04.1*
G04 #@! TF.CreationDate,2022-10-13T10:44:28+02:00*
G04 #@! TF.ProjectId,Floppy emulator with OSD,466c6f70-7079-4206-956d-756c61746f72,0.2*
G04 #@! TF.SameCoordinates,Original*
G04 #@! TF.FileFunction,Legend,Top*
G04 #@! TF.FilePolarity,Positive*
%FSLAX46Y46*%
G04 Gerber Fmt 4.6, Leading zero omitted, Abs format (unit mm)*
G04 Created by KiCad (PCBNEW 6.0.8-f2edbf62ab~116~ubuntu22.04.1) date 2022-10-13 10:44:28*
%MOMM*%
%LPD*%
G01*
G04 APERTURE LIST*
G04 Aperture macros list*
%AMRoundRect*
0 Rectangle with rounded corners*
0 $1 Rounding radius*
0 $2 $3 $4 $5 $6 $7 $8 $9 X,Y pos of 4 corners*
0 Add a 4 corners polygon primitive as box body*
4,1,4,$2,$3,$4,$5,$6,$7,$8,$9,$2,$3,0*
0 Add four circle primitives for the rounded corners*
1,1,$1+$1,$2,$3*
1,1,$1+$1,$4,$5*
1,1,$1+$1,$6,$7*
1,1,$1+$1,$8,$9*
0 Add four rect primitives between the rounded corners*
20,1,$1+$1,$2,$3,$4,$5,0*
20,1,$1+$1,$4,$5,$6,$7,0*
20,1,$1+$1,$6,$7,$8,$9,0*
20,1,$1+$1,$8,$9,$2,$3,0*%
%AMRotRect*
0 Rectangle, with rotation*
0 The origin of the aperture is its center*
0 $1 length*
0 $2 width*
0 $3 Rotation angle, in degrees counterclockwise*
0 Add horizontal line*
21,1,$1,$2,0,0,$3*%
%AMFreePoly0*
4,1,22,0.500000,-0.750000,0.000000,-0.750000,0.000000,-0.745033,-0.079941,-0.743568,-0.215256,-0.701293,-0.333266,-0.622738,-0.424486,-0.514219,-0.481581,-0.384460,-0.499164,-0.250000,-0.500000,-0.250000,-0.500000,0.250000,-0.499164,0.250000,-0.499963,0.256109,-0.478152,0.396186,-0.417904,0.524511,-0.324060,0.630769,-0.204165,0.706417,-0.067858,0.745374,0.000000,0.744959,0.000000,0.750000,
0.500000,0.750000,0.500000,-0.750000,0.500000,-0.750000,$1*%
%AMFreePoly1*
4,1,20,0.000000,0.744959,0.073905,0.744508,0.209726,0.703889,0.328688,0.626782,0.421226,0.519385,0.479903,0.390333,0.500000,0.250000,0.500000,-0.250000,0.499851,-0.262216,0.476331,-0.402017,0.414519,-0.529596,0.319384,-0.634700,0.198574,-0.708877,0.061801,-0.746166,0.000000,-0.745033,0.000000,-0.750000,-0.500000,-0.750000,-0.500000,0.750000,0.000000,0.750000,0.000000,0.744959,
0.000000,0.744959,$1*%
G04 Aperture macros list end*
%ADD10C,0.100000*%
%ADD11C,0.150000*%
%ADD12C,0.120000*%
%ADD13RoundRect,0.250000X-0.250000X-0.475000X0.250000X-0.475000X0.250000X0.475000X-0.250000X0.475000X0*%
%ADD14RoundRect,0.250000X0.475000X-0.250000X0.475000X0.250000X-0.475000X0.250000X-0.475000X-0.250000X0*%
%ADD15RoundRect,0.250000X0.250000X0.475000X-0.250000X0.475000X-0.250000X-0.475000X0.250000X-0.475000X0*%
%ADD16RoundRect,0.250000X-0.475000X0.250000X-0.475000X-0.250000X0.475000X-0.250000X0.475000X0.250000X0*%
%ADD17R,1.700000X1.700000*%
%ADD18O,1.700000X1.700000*%
%ADD19FreePoly0,90.000000*%
%ADD20FreePoly1,90.000000*%
%ADD21R,1.900000X1.900000*%
%ADD22C,1.900000*%
%ADD23RoundRect,0.250000X0.262500X0.450000X-0.262500X0.450000X-0.262500X-0.450000X0.262500X-0.450000X0*%
%ADD24R,0.500000X0.800000*%
%ADD25R,0.400000X0.800000*%
%ADD26RoundRect,0.075000X-0.700000X-0.075000X0.700000X-0.075000X0.700000X0.075000X-0.700000X0.075000X0*%
%ADD27RoundRect,0.075000X-0.075000X-0.700000X0.075000X-0.700000X0.075000X0.700000X-0.075000X0.700000X0*%
%ADD28RoundRect,0.150000X-0.512500X-0.150000X0.512500X-0.150000X0.512500X0.150000X-0.512500X0.150000X0*%
%ADD29RoundRect,0.075000X-0.662500X-0.075000X0.662500X-0.075000X0.662500X0.075000X-0.662500X0.075000X0*%
%ADD30RoundRect,0.075000X-0.075000X-0.662500X0.075000X-0.662500X0.075000X0.662500X-0.075000X0.662500X0*%
%ADD31C,1.500000*%
%ADD32C,1.700000*%
%ADD33RoundRect,0.150000X-0.825000X-0.150000X0.825000X-0.150000X0.825000X0.150000X-0.825000X0.150000X0*%
%ADD34RoundRect,0.250000X-0.450000X0.262500X-0.450000X-0.262500X0.450000X-0.262500X0.450000X0.262500X0*%
%ADD35C,3.000000*%
%ADD36RoundRect,0.250000X0.450000X-0.262500X0.450000X0.262500X-0.450000X0.262500X-0.450000X-0.262500X0*%
%ADD37RotRect,0.900000X0.800000X135.000000*%
G04 APERTURE END LIST*
D10*
X87630000Y-151765000D02*
X87630000Y-107315000D01*
D11*
X95885000Y-113030000D02*
X93345000Y-110490000D01*
D10*
G36*
X99695000Y-125730000D02*
G01*
X98425000Y-124460000D01*
X99695000Y-123190000D01*
X99695000Y-125730000D01*
G37*
X99695000Y-125730000D02*
X98425000Y-124460000D01*
X99695000Y-123190000D01*
X99695000Y-125730000D01*
X133985000Y-151765000D02*
X87630000Y-151765000D01*
G36*
X93345000Y-137160000D02*
G01*
X92075000Y-135890000D01*
X93345000Y-134620000D01*
X93345000Y-137160000D01*
G37*
X93345000Y-137160000D02*
X92075000Y-135890000D01*
X93345000Y-134620000D01*
X93345000Y-137160000D01*
G36*
X99695000Y-135890000D02*
G01*
X98425000Y-134620000D01*
X99695000Y-133350000D01*
X99695000Y-135890000D01*
G37*
X99695000Y-135890000D02*
X98425000Y-134620000D01*
X99695000Y-133350000D01*
X99695000Y-135890000D01*
D11*
X93345000Y-113030000D02*
X95885000Y-110490000D01*
D10*
X133985000Y-107315000D02*
X133985000Y-151765000D01*
X87630000Y-107315000D02*
X133985000Y-107315000D01*
G36*
X93345000Y-124460000D02*
G01*
X92075000Y-123190000D01*
X93345000Y-121920000D01*
X93345000Y-124460000D01*
G37*
X93345000Y-124460000D02*
X92075000Y-123190000D01*
X93345000Y-121920000D01*
X93345000Y-124460000D01*
D11*
X115379523Y-148280380D02*
X114808095Y-148280380D01*
X115093809Y-148280380D02*
X115093809Y-147280380D01*
X114998571Y-147423238D01*
X114903333Y-147518476D01*
X114808095Y-147566095D01*
X115712857Y-147280380D02*
X116331904Y-147280380D01*
X115998571Y-147661333D01*
X116141428Y-147661333D01*
X116236666Y-147708952D01*
X116284285Y-147756571D01*
X116331904Y-147851809D01*
X116331904Y-148089904D01*
X116284285Y-148185142D01*
X116236666Y-148232761D01*
X116141428Y-148280380D01*
X115855714Y-148280380D01*
X115760476Y-148232761D01*
X115712857Y-148185142D01*
X112839523Y-148280380D02*
X112268095Y-148280380D01*
X112553809Y-148280380D02*
X112553809Y-147280380D01*
X112458571Y-147423238D01*
X112363333Y-147518476D01*
X112268095Y-147566095D01*
X113696666Y-147613714D02*
X113696666Y-148280380D01*
X113458571Y-147232761D02*
X113220476Y-147947047D01*
X113839523Y-147947047D01*
X110299523Y-148280380D02*
X109728095Y-148280380D01*
X110013809Y-148280380D02*
X110013809Y-147280380D01*
X109918571Y-147423238D01*
X109823333Y-147518476D01*
X109728095Y-147566095D01*
X111204285Y-147280380D02*
X110728095Y-147280380D01*
X110680476Y-147756571D01*
X110728095Y-147708952D01*
X110823333Y-147661333D01*
X111061428Y-147661333D01*
X111156666Y-147708952D01*
X111204285Y-147756571D01*
X111251904Y-147851809D01*
X111251904Y-148089904D01*
X111204285Y-148185142D01*
X111156666Y-148232761D01*
X111061428Y-148280380D01*
X110823333Y-148280380D01*
X110728095Y-148232761D01*
X110680476Y-148185142D01*
X117919523Y-148280380D02*
X117348095Y-148280380D01*
X117633809Y-148280380D02*
X117633809Y-147280380D01*
X117538571Y-147423238D01*
X117443333Y-147518476D01*
X117348095Y-147566095D01*
X118300476Y-147375619D02*
X118348095Y-147328000D01*
X118443333Y-147280380D01*
X118681428Y-147280380D01*
X118776666Y-147328000D01*
X118824285Y-147375619D01*
X118871904Y-147470857D01*
X118871904Y-147566095D01*
X118824285Y-147708952D01*
X118252857Y-148280380D01*
X118871904Y-148280380D01*
X106537142Y-116927380D02*
X106060952Y-116927380D01*
X106013333Y-117403571D01*
X106060952Y-117355952D01*
X106156190Y-117308333D01*
X106394285Y-117308333D01*
X106489523Y-117355952D01*
X106537142Y-117403571D01*
X106584761Y-117498809D01*
X106584761Y-117736904D01*
X106537142Y-117832142D01*
X106489523Y-117879761D01*
X106394285Y-117927380D01*
X106156190Y-117927380D01*
X106060952Y-117879761D01*
X106013333Y-117832142D01*
X106918095Y-117260714D02*
X107156190Y-117927380D01*
X107394285Y-117260714D01*
X117240238Y-136287380D02*
X117192619Y-136430238D01*
X117192619Y-136668333D01*
X117240238Y-136763571D01*
X117287857Y-136811190D01*
X117383095Y-136858809D01*
X117478333Y-136858809D01*
X117573571Y-136811190D01*
X117621190Y-136763571D01*
X117668809Y-136668333D01*
X117716428Y-136477857D01*
X117764047Y-136382619D01*
X117811666Y-136335000D01*
X117906904Y-136287380D01*
X118002142Y-136287380D01*
X118097380Y-136335000D01*
X118145000Y-136382619D01*
X118192619Y-136477857D01*
X118192619Y-136715952D01*
X118145000Y-136858809D01*
X118192619Y-137144523D02*
X118192619Y-137715952D01*
X117192619Y-137430238D02*
X118192619Y-137430238D01*
X117192619Y-138049285D02*
X118192619Y-138049285D01*
X117478333Y-138382619D01*
X118192619Y-138715952D01*
X117192619Y-138715952D01*
X118192619Y-139096904D02*
X118192619Y-139715952D01*
X117811666Y-139382619D01*
X117811666Y-139525476D01*
X117764047Y-139620714D01*
X117716428Y-139668333D01*
X117621190Y-139715952D01*
X117383095Y-139715952D01*
X117287857Y-139668333D01*
X117240238Y-139620714D01*
X117192619Y-139525476D01*
X117192619Y-139239761D01*
X117240238Y-139144523D01*
X117287857Y-139096904D01*
X118097380Y-140096904D02*
X118145000Y-140144523D01*
X118192619Y-140239761D01*
X118192619Y-140477857D01*
X118145000Y-140573095D01*
X118097380Y-140620714D01*
X118002142Y-140668333D01*
X117906904Y-140668333D01*
X117764047Y-140620714D01*
X117192619Y-140049285D01*
X117192619Y-140668333D01*
X117716428Y-141430238D02*
X117716428Y-141096904D01*
X117192619Y-141096904D02*
X118192619Y-141096904D01*
X118192619Y-141573095D01*
X117192619Y-142477857D02*
X117192619Y-141906428D01*
X117192619Y-142192142D02*
X118192619Y-142192142D01*
X118049761Y-142096904D01*
X117954523Y-142001666D01*
X117906904Y-141906428D01*
X118192619Y-143096904D02*
X118192619Y-143192142D01*
X118145000Y-143287380D01*
X118097380Y-143335000D01*
X118002142Y-143382619D01*
X117811666Y-143430238D01*
X117573571Y-143430238D01*
X117383095Y-143382619D01*
X117287857Y-143335000D01*
X117240238Y-143287380D01*
X117192619Y-143192142D01*
X117192619Y-143096904D01*
X117240238Y-143001666D01*
X117287857Y-142954047D01*
X117383095Y-142906428D01*
X117573571Y-142858809D01*
X117811666Y-142858809D01*
X118002142Y-142906428D01*
X118097380Y-142954047D01*
X118145000Y-143001666D01*
X118192619Y-143096904D01*
X118192619Y-144335000D02*
X118192619Y-143858809D01*
X117716428Y-143811190D01*
X117764047Y-143858809D01*
X117811666Y-143954047D01*
X117811666Y-144192142D01*
X117764047Y-144287380D01*
X117716428Y-144335000D01*
X117621190Y-144382619D01*
X117383095Y-144382619D01*
X117287857Y-144335000D01*
X117240238Y-144287380D01*
X117192619Y-144192142D01*
X117192619Y-143954047D01*
X117240238Y-143858809D01*
X117287857Y-143811190D01*
X115582619Y-139358809D02*
X116058809Y-139025476D01*
X115582619Y-138787380D02*
X116582619Y-138787380D01*
X116582619Y-139168333D01*
X116535000Y-139263571D01*
X116487380Y-139311190D01*
X116392142Y-139358809D01*
X116249285Y-139358809D01*
X116154047Y-139311190D01*
X116106428Y-139263571D01*
X116058809Y-139168333D01*
X116058809Y-138787380D01*
X116106428Y-140120714D02*
X116058809Y-140263571D01*
X116011190Y-140311190D01*
X115915952Y-140358809D01*
X115773095Y-140358809D01*
X115677857Y-140311190D01*
X115630238Y-140263571D01*
X115582619Y-140168333D01*
X115582619Y-139787380D01*
X116582619Y-139787380D01*
X116582619Y-140120714D01*
X116535000Y-140215952D01*
X116487380Y-140263571D01*
X116392142Y-140311190D01*
X116296904Y-140311190D01*
X116201666Y-140263571D01*
X116154047Y-140215952D01*
X116106428Y-140120714D01*
X116106428Y-139787380D01*
X116582619Y-140644523D02*
X116582619Y-141215952D01*
X115582619Y-140930238D02*
X116582619Y-140930238D01*
X115582619Y-141454047D02*
X116249285Y-141977857D01*
X116249285Y-141454047D02*
X115582619Y-141977857D01*
X102227142Y-147391380D02*
X101750952Y-147391380D01*
X101750952Y-146391380D01*
X102560476Y-146867571D02*
X102893809Y-146867571D01*
X103036666Y-147391380D02*
X102560476Y-147391380D01*
X102560476Y-146391380D01*
X103036666Y-146391380D01*
X103465238Y-147391380D02*
X103465238Y-146391380D01*
X103703333Y-146391380D01*
X103846190Y-146439000D01*
X103941428Y-146534238D01*
X103989047Y-146629476D01*
X104036666Y-146819952D01*
X104036666Y-146962809D01*
X103989047Y-147153285D01*
X103941428Y-147248523D01*
X103846190Y-147343761D01*
X103703333Y-147391380D01*
X103465238Y-147391380D01*
X106592619Y-128167142D02*
X106592619Y-128833809D01*
X105592619Y-128405238D01*
X106259285Y-129643333D02*
X105592619Y-129643333D01*
X106640238Y-129405238D02*
X105925952Y-129167142D01*
X105925952Y-129786190D01*
X105592619Y-130643333D02*
X105592619Y-130167142D01*
X106592619Y-130167142D01*
X105640238Y-130929047D02*
X105592619Y-131071904D01*
X105592619Y-131310000D01*
X105640238Y-131405238D01*
X105687857Y-131452857D01*
X105783095Y-131500476D01*
X105878333Y-131500476D01*
X105973571Y-131452857D01*
X106021190Y-131405238D01*
X106068809Y-131310000D01*
X106116428Y-131119523D01*
X106164047Y-131024285D01*
X106211666Y-130976666D01*
X106306904Y-130929047D01*
X106402142Y-130929047D01*
X106497380Y-130976666D01*
X106545000Y-131024285D01*
X106592619Y-131119523D01*
X106592619Y-131357619D01*
X106545000Y-131500476D01*
X106592619Y-132119523D02*
X106592619Y-132214761D01*
X106545000Y-132310000D01*
X106497380Y-132357619D01*
X106402142Y-132405238D01*
X106211666Y-132452857D01*
X105973571Y-132452857D01*
X105783095Y-132405238D01*
X105687857Y-132357619D01*
X105640238Y-132310000D01*
X105592619Y-132214761D01*
X105592619Y-132119523D01*
X105640238Y-132024285D01*
X105687857Y-131976666D01*
X105783095Y-131929047D01*
X105973571Y-131881428D01*
X106211666Y-131881428D01*
X106402142Y-131929047D01*
X106497380Y-131976666D01*
X106545000Y-132024285D01*
X106592619Y-132119523D01*
X106592619Y-132786190D02*
X106592619Y-133452857D01*
X105592619Y-133024285D01*
X93305285Y-124944761D02*
X93305285Y-125325714D01*
X93638619Y-125087619D02*
X92781476Y-125087619D01*
X92686238Y-125135238D01*
X92638619Y-125230476D01*
X92638619Y-125325714D01*
X92638619Y-125801904D02*
X92686238Y-125706666D01*
X92733857Y-125659047D01*
X92829095Y-125611428D01*
X93114809Y-125611428D01*
X93210047Y-125659047D01*
X93257666Y-125706666D01*
X93305285Y-125801904D01*
X93305285Y-125944761D01*
X93257666Y-126040000D01*
X93210047Y-126087619D01*
X93114809Y-126135238D01*
X92829095Y-126135238D01*
X92733857Y-126087619D01*
X92686238Y-126040000D01*
X92638619Y-125944761D01*
X92638619Y-125801904D01*
X93543380Y-127278095D02*
X93591000Y-127325714D01*
X93638619Y-127420952D01*
X93638619Y-127659047D01*
X93591000Y-127754285D01*
X93543380Y-127801904D01*
X93448142Y-127849523D01*
X93352904Y-127849523D01*
X93210047Y-127801904D01*
X92638619Y-127230476D01*
X92638619Y-127849523D01*
X93305285Y-128278095D02*
X92638619Y-128278095D01*
X93210047Y-128278095D02*
X93257666Y-128325714D01*
X93305285Y-128420952D01*
X93305285Y-128563809D01*
X93257666Y-128659047D01*
X93162428Y-128706666D01*
X92638619Y-128706666D01*
X92638619Y-129611428D02*
X93638619Y-129611428D01*
X92686238Y-129611428D02*
X92638619Y-129516190D01*
X92638619Y-129325714D01*
X92686238Y-129230476D01*
X92733857Y-129182857D01*
X92829095Y-129135238D01*
X93114809Y-129135238D01*
X93210047Y-129182857D01*
X93257666Y-129230476D01*
X93305285Y-129325714D01*
X93305285Y-129516190D01*
X93257666Y-129611428D01*
X92638619Y-131278095D02*
X93638619Y-131278095D01*
X92686238Y-131278095D02*
X92638619Y-131182857D01*
X92638619Y-130992380D01*
X92686238Y-130897142D01*
X92733857Y-130849523D01*
X92829095Y-130801904D01*
X93114809Y-130801904D01*
X93210047Y-130849523D01*
X93257666Y-130897142D01*
X93305285Y-130992380D01*
X93305285Y-131182857D01*
X93257666Y-131278095D01*
X92638619Y-131754285D02*
X93305285Y-131754285D01*
X93114809Y-131754285D02*
X93210047Y-131801904D01*
X93257666Y-131849523D01*
X93305285Y-131944761D01*
X93305285Y-132040000D01*
X92638619Y-132373333D02*
X93305285Y-132373333D01*
X93638619Y-132373333D02*
X93591000Y-132325714D01*
X93543380Y-132373333D01*
X93591000Y-132420952D01*
X93638619Y-132373333D01*
X93543380Y-132373333D01*
X93305285Y-132754285D02*
X92638619Y-132992380D01*
X93305285Y-133230476D01*
X92686238Y-133992380D02*
X92638619Y-133897142D01*
X92638619Y-133706666D01*
X92686238Y-133611428D01*
X92781476Y-133563809D01*
X93162428Y-133563809D01*
X93257666Y-133611428D01*
X93305285Y-133706666D01*
X93305285Y-133897142D01*
X93257666Y-133992380D01*
X93162428Y-134040000D01*
X93067190Y-134040000D01*
X92971952Y-133563809D01*
X103124047Y-148026428D02*
X103885952Y-148026428D01*
X103505000Y-148407380D02*
X103505000Y-147645476D01*
X99147285Y-126920952D02*
X99147285Y-127301904D01*
X99480619Y-127063809D02*
X98623476Y-127063809D01*
X98528238Y-127111428D01*
X98480619Y-127206666D01*
X98480619Y-127301904D01*
X98480619Y-127778095D02*
X98528238Y-127682857D01*
X98575857Y-127635238D01*
X98671095Y-127587619D01*
X98956809Y-127587619D01*
X99052047Y-127635238D01*
X99099666Y-127682857D01*
X99147285Y-127778095D01*
X99147285Y-127920952D01*
X99099666Y-128016190D01*
X99052047Y-128063809D01*
X98956809Y-128111428D01*
X98671095Y-128111428D01*
X98575857Y-128063809D01*
X98528238Y-128016190D01*
X98480619Y-127920952D01*
X98480619Y-127778095D01*
X98480619Y-129301904D02*
X99480619Y-129301904D01*
X98480619Y-129730476D02*
X99004428Y-129730476D01*
X99099666Y-129682857D01*
X99147285Y-129587619D01*
X99147285Y-129444761D01*
X99099666Y-129349523D01*
X99052047Y-129301904D01*
X98480619Y-130349523D02*
X98528238Y-130254285D01*
X98575857Y-130206666D01*
X98671095Y-130159047D01*
X98956809Y-130159047D01*
X99052047Y-130206666D01*
X99099666Y-130254285D01*
X99147285Y-130349523D01*
X99147285Y-130492380D01*
X99099666Y-130587619D01*
X99052047Y-130635238D01*
X98956809Y-130682857D01*
X98671095Y-130682857D01*
X98575857Y-130635238D01*
X98528238Y-130587619D01*
X98480619Y-130492380D01*
X98480619Y-130349523D01*
X98528238Y-131063809D02*
X98480619Y-131159047D01*
X98480619Y-131349523D01*
X98528238Y-131444761D01*
X98623476Y-131492380D01*
X98671095Y-131492380D01*
X98766333Y-131444761D01*
X98813952Y-131349523D01*
X98813952Y-131206666D01*
X98861571Y-131111428D01*
X98956809Y-131063809D01*
X99004428Y-131063809D01*
X99099666Y-131111428D01*
X99147285Y-131206666D01*
X99147285Y-131349523D01*
X99099666Y-131444761D01*
X99147285Y-131778095D02*
X99147285Y-132159047D01*
X99480619Y-131920952D02*
X98623476Y-131920952D01*
X98528238Y-131968571D01*
X98480619Y-132063809D01*
X98480619Y-132159047D01*
X107592857Y-147280380D02*
X107592857Y-147994666D01*
X107545238Y-148137523D01*
X107450000Y-148232761D01*
X107307142Y-148280380D01*
X107211904Y-148280380D01*
X108402380Y-147756571D02*
X108545238Y-147804190D01*
X108592857Y-147851809D01*
X108640476Y-147947047D01*
X108640476Y-148089904D01*
X108592857Y-148185142D01*
X108545238Y-148232761D01*
X108450000Y-148280380D01*
X108069047Y-148280380D01*
X108069047Y-147280380D01*
X108402380Y-147280380D01*
X108497619Y-147328000D01*
X108545238Y-147375619D01*
X108592857Y-147470857D01*
X108592857Y-147566095D01*
X108545238Y-147661333D01*
X108497619Y-147708952D01*
X108402380Y-147756571D01*
X108069047Y-147756571D01*
X123590238Y-116125952D02*
X123542619Y-116268809D01*
X123542619Y-116506904D01*
X123590238Y-116602142D01*
X123637857Y-116649761D01*
X123733095Y-116697380D01*
X123828333Y-116697380D01*
X123923571Y-116649761D01*
X123971190Y-116602142D01*
X124018809Y-116506904D01*
X124066428Y-116316428D01*
X124114047Y-116221190D01*
X124161666Y-116173571D01*
X124256904Y-116125952D01*
X124352142Y-116125952D01*
X124447380Y-116173571D01*
X124495000Y-116221190D01*
X124542619Y-116316428D01*
X124542619Y-116554523D01*
X124495000Y-116697380D01*
X124542619Y-116983095D02*
X124542619Y-117554523D01*
X123542619Y-117268809D02*
X124542619Y-117268809D01*
X123542619Y-117887857D02*
X124542619Y-117887857D01*
X123828333Y-118221190D01*
X124542619Y-118554523D01*
X123542619Y-118554523D01*
X124542619Y-118935476D02*
X124542619Y-119554523D01*
X124161666Y-119221190D01*
X124161666Y-119364047D01*
X124114047Y-119459285D01*
X124066428Y-119506904D01*
X123971190Y-119554523D01*
X123733095Y-119554523D01*
X123637857Y-119506904D01*
X123590238Y-119459285D01*
X123542619Y-119364047D01*
X123542619Y-119078333D01*
X123590238Y-118983095D01*
X123637857Y-118935476D01*
X124447380Y-119935476D02*
X124495000Y-119983095D01*
X124542619Y-120078333D01*
X124542619Y-120316428D01*
X124495000Y-120411666D01*
X124447380Y-120459285D01*
X124352142Y-120506904D01*
X124256904Y-120506904D01*
X124114047Y-120459285D01*
X123542619Y-119887857D01*
X123542619Y-120506904D01*
X124066428Y-121268809D02*
X124066428Y-120935476D01*
X123542619Y-120935476D02*
X124542619Y-120935476D01*
X124542619Y-121411666D01*
X121932619Y-116316428D02*
X121932619Y-115745000D01*
X121932619Y-116030714D02*
X122932619Y-116030714D01*
X122789761Y-115935476D01*
X122694523Y-115840238D01*
X122646904Y-115745000D01*
X122932619Y-116935476D02*
X122932619Y-117030714D01*
X122885000Y-117125952D01*
X122837380Y-117173571D01*
X122742142Y-117221190D01*
X122551666Y-117268809D01*
X122313571Y-117268809D01*
X122123095Y-117221190D01*
X122027857Y-117173571D01*
X121980238Y-117125952D01*
X121932619Y-117030714D01*
X121932619Y-116935476D01*
X121980238Y-116840238D01*
X122027857Y-116792619D01*
X122123095Y-116745000D01*
X122313571Y-116697380D01*
X122551666Y-116697380D01*
X122742142Y-116745000D01*
X122837380Y-116792619D01*
X122885000Y-116840238D01*
X122932619Y-116935476D01*
X122932619Y-117602142D02*
X122932619Y-118221190D01*
X122551666Y-117887857D01*
X122551666Y-118030714D01*
X122504047Y-118125952D01*
X122456428Y-118173571D01*
X122361190Y-118221190D01*
X122123095Y-118221190D01*
X122027857Y-118173571D01*
X121980238Y-118125952D01*
X121932619Y-118030714D01*
X121932619Y-117745000D01*
X121980238Y-117649761D01*
X122027857Y-117602142D01*
X122027857Y-119221190D02*
X121980238Y-119173571D01*
X121932619Y-119030714D01*
X121932619Y-118935476D01*
X121980238Y-118792619D01*
X122075476Y-118697380D01*
X122170714Y-118649761D01*
X122361190Y-118602142D01*
X122504047Y-118602142D01*
X122694523Y-118649761D01*
X122789761Y-118697380D01*
X122885000Y-118792619D01*
X122932619Y-118935476D01*
X122932619Y-119030714D01*
X122885000Y-119173571D01*
X122837380Y-119221190D01*
X122504047Y-119792619D02*
X122551666Y-119697380D01*
X122599285Y-119649761D01*
X122694523Y-119602142D01*
X122742142Y-119602142D01*
X122837380Y-119649761D01*
X122885000Y-119697380D01*
X122932619Y-119792619D01*
X122932619Y-119983095D01*
X122885000Y-120078333D01*
X122837380Y-120125952D01*
X122742142Y-120173571D01*
X122694523Y-120173571D01*
X122599285Y-120125952D01*
X122551666Y-120078333D01*
X122504047Y-119983095D01*
X122504047Y-119792619D01*
X122456428Y-119697380D01*
X122408809Y-119649761D01*
X122313571Y-119602142D01*
X122123095Y-119602142D01*
X122027857Y-119649761D01*
X121980238Y-119697380D01*
X121932619Y-119792619D01*
X121932619Y-119983095D01*
X121980238Y-120078333D01*
X122027857Y-120125952D01*
X122123095Y-120173571D01*
X122313571Y-120173571D01*
X122408809Y-120125952D01*
X122456428Y-120078333D01*
X122504047Y-119983095D01*
X122932619Y-120459285D02*
X122932619Y-121030714D01*
X121932619Y-120745000D02*
X122932619Y-120745000D01*
X121932619Y-121268809D02*
X122599285Y-121792619D01*
X122599285Y-121268809D02*
X121932619Y-121792619D01*
X112164833Y-120562642D02*
X112117214Y-120610261D01*
X111974357Y-120657880D01*
X111879119Y-120657880D01*
X111736261Y-120610261D01*
X111641023Y-120515023D01*
X111593404Y-120419785D01*
X111545785Y-120229309D01*
X111545785Y-120086452D01*
X111593404Y-119895976D01*
X111641023Y-119800738D01*
X111736261Y-119705500D01*
X111879119Y-119657880D01*
X111974357Y-119657880D01*
X112117214Y-119705500D01*
X112164833Y-119753119D01*
X113021976Y-119991214D02*
X113021976Y-120657880D01*
X112783880Y-119610261D02*
X112545785Y-120324547D01*
X113164833Y-120324547D01*
X116228857Y-122134333D02*
X116181238Y-122086714D01*
X116133619Y-121943857D01*
X116133619Y-121848619D01*
X116181238Y-121705761D01*
X116276476Y-121610523D01*
X116371714Y-121562904D01*
X116562190Y-121515285D01*
X116705047Y-121515285D01*
X116895523Y-121562904D01*
X116990761Y-121610523D01*
X117086000Y-121705761D01*
X117133619Y-121848619D01*
X117133619Y-121943857D01*
X117086000Y-122086714D01*
X117038380Y-122134333D01*
X117133619Y-123039095D02*
X117133619Y-122562904D01*
X116657428Y-122515285D01*
X116705047Y-122562904D01*
X116752666Y-122658142D01*
X116752666Y-122896238D01*
X116705047Y-122991476D01*
X116657428Y-123039095D01*
X116562190Y-123086714D01*
X116324095Y-123086714D01*
X116228857Y-123039095D01*
X116181238Y-122991476D01*
X116133619Y-122896238D01*
X116133619Y-122658142D01*
X116181238Y-122562904D01*
X116228857Y-122515285D01*
X101735833Y-138469642D02*
X101688214Y-138517261D01*
X101545357Y-138564880D01*
X101450119Y-138564880D01*
X101307261Y-138517261D01*
X101212023Y-138422023D01*
X101164404Y-138326785D01*
X101116785Y-138136309D01*
X101116785Y-137993452D01*
X101164404Y-137802976D01*
X101212023Y-137707738D01*
X101307261Y-137612500D01*
X101450119Y-137564880D01*
X101545357Y-137564880D01*
X101688214Y-137612500D01*
X101735833Y-137660119D01*
X102592976Y-137564880D02*
X102402500Y-137564880D01*
X102307261Y-137612500D01*
X102259642Y-137660119D01*
X102164404Y-137802976D01*
X102116785Y-137993452D01*
X102116785Y-138374404D01*
X102164404Y-138469642D01*
X102212023Y-138517261D01*
X102307261Y-138564880D01*
X102497738Y-138564880D01*
X102592976Y-138517261D01*
X102640595Y-138469642D01*
X102688214Y-138374404D01*
X102688214Y-138136309D01*
X102640595Y-138041071D01*
X102592976Y-137993452D01*
X102497738Y-137945833D01*
X102307261Y-137945833D01*
X102212023Y-137993452D01*
X102164404Y-138041071D01*
X102116785Y-138136309D01*
X113117357Y-128897142D02*
X113069738Y-128849523D01*
X113022119Y-128706666D01*
X113022119Y-128611428D01*
X113069738Y-128468571D01*
X113164976Y-128373333D01*
X113260214Y-128325714D01*
X113450690Y-128278095D01*
X113593547Y-128278095D01*
X113784023Y-128325714D01*
X113879261Y-128373333D01*
X113974500Y-128468571D01*
X114022119Y-128611428D01*
X114022119Y-128706666D01*
X113974500Y-128849523D01*
X113926880Y-128897142D01*
X114022119Y-129230476D02*
X114022119Y-129849523D01*
X113641166Y-129516190D01*
X113641166Y-129659047D01*
X113593547Y-129754285D01*
X113545928Y-129801904D01*
X113450690Y-129849523D01*
X113212595Y-129849523D01*
X113117357Y-129801904D01*
X113069738Y-129754285D01*
X113022119Y-129659047D01*
X113022119Y-129373333D01*
X113069738Y-129278095D01*
X113117357Y-129230476D01*
X114022119Y-130468571D02*
X114022119Y-130563809D01*
X113974500Y-130659047D01*
X113926880Y-130706666D01*
X113831642Y-130754285D01*
X113641166Y-130801904D01*
X113403071Y-130801904D01*
X113212595Y-130754285D01*
X113117357Y-130706666D01*
X113069738Y-130659047D01*
X113022119Y-130563809D01*
X113022119Y-130468571D01*
X113069738Y-130373333D01*
X113117357Y-130325714D01*
X113212595Y-130278095D01*
X113403071Y-130230476D01*
X113641166Y-130230476D01*
X113831642Y-130278095D01*
X113926880Y-130325714D01*
X113974500Y-130373333D01*
X114022119Y-130468571D01*
X117149642Y-131261380D02*
X116816309Y-130785190D01*
X116578214Y-131261380D02*
X116578214Y-130261380D01*
X116959166Y-130261380D01*
X117054404Y-130309000D01*
X117102023Y-130356619D01*
X117149642Y-130451857D01*
X117149642Y-130594714D01*
X117102023Y-130689952D01*
X117054404Y-130737571D01*
X116959166Y-130785190D01*
X116578214Y-130785190D01*
X118102023Y-131261380D02*
X117530595Y-131261380D01*
X117816309Y-131261380D02*
X117816309Y-130261380D01*
X117721071Y-130404238D01*
X117625833Y-130499476D01*
X117530595Y-130547095D01*
X119054404Y-131261380D02*
X118482976Y-131261380D01*
X118768690Y-131261380D02*
X118768690Y-130261380D01*
X118673452Y-130404238D01*
X118578214Y-130499476D01*
X118482976Y-130547095D01*
X99877619Y-126944523D02*
X100353809Y-126611190D01*
X99877619Y-126373095D02*
X100877619Y-126373095D01*
X100877619Y-126754047D01*
X100830000Y-126849285D01*
X100782380Y-126896904D01*
X100687142Y-126944523D01*
X100544285Y-126944523D01*
X100449047Y-126896904D01*
X100401428Y-126849285D01*
X100353809Y-126754047D01*
X100353809Y-126373095D01*
X99877619Y-127373095D02*
X100877619Y-127373095D01*
X99877619Y-127944523D01*
X100877619Y-127944523D01*
X100877619Y-128325476D02*
X100877619Y-128992142D01*
X99877619Y-128563571D01*
X101147619Y-126944523D02*
X101623809Y-126611190D01*
X101147619Y-126373095D02*
X102147619Y-126373095D01*
X102147619Y-126754047D01*
X102100000Y-126849285D01*
X102052380Y-126896904D01*
X101957142Y-126944523D01*
X101814285Y-126944523D01*
X101719047Y-126896904D01*
X101671428Y-126849285D01*
X101623809Y-126754047D01*
X101623809Y-126373095D01*
X101147619Y-127373095D02*
X102147619Y-127373095D01*
X101147619Y-127944523D01*
X102147619Y-127944523D01*
X101719047Y-128563571D02*
X101766666Y-128468333D01*
X101814285Y-128420714D01*
X101909523Y-128373095D01*
X101957142Y-128373095D01*
X102052380Y-128420714D01*
X102100000Y-128468333D01*
X102147619Y-128563571D01*
X102147619Y-128754047D01*
X102100000Y-128849285D01*
X102052380Y-128896904D01*
X101957142Y-128944523D01*
X101909523Y-128944523D01*
X101814285Y-128896904D01*
X101766666Y-128849285D01*
X101719047Y-128754047D01*
X101719047Y-128563571D01*
X101671428Y-128468333D01*
X101623809Y-128420714D01*
X101528571Y-128373095D01*
X101338095Y-128373095D01*
X101242857Y-128420714D01*
X101195238Y-128468333D01*
X101147619Y-128563571D01*
X101147619Y-128754047D01*
X101195238Y-128849285D01*
X101242857Y-128896904D01*
X101338095Y-128944523D01*
X101528571Y-128944523D01*
X101623809Y-128896904D01*
X101671428Y-128849285D01*
X101719047Y-128754047D01*
X101735833Y-142152642D02*
X101688214Y-142200261D01*
X101545357Y-142247880D01*
X101450119Y-142247880D01*
X101307261Y-142200261D01*
X101212023Y-142105023D01*
X101164404Y-142009785D01*
X101116785Y-141819309D01*
X101116785Y-141676452D01*
X101164404Y-141485976D01*
X101212023Y-141390738D01*
X101307261Y-141295500D01*
X101450119Y-141247880D01*
X101545357Y-141247880D01*
X101688214Y-141295500D01*
X101735833Y-141343119D01*
X102069166Y-141247880D02*
X102735833Y-141247880D01*
X102307261Y-142247880D01*
X124007619Y-133183333D02*
X124483809Y-132850000D01*
X124007619Y-132611904D02*
X125007619Y-132611904D01*
X125007619Y-132992857D01*
X124960000Y-133088095D01*
X124912380Y-133135714D01*
X124817142Y-133183333D01*
X124674285Y-133183333D01*
X124579047Y-133135714D01*
X124531428Y-133088095D01*
X124483809Y-132992857D01*
X124483809Y-132611904D01*
X124007619Y-134135714D02*
X124007619Y-133564285D01*
X124007619Y-133850000D02*
X125007619Y-133850000D01*
X124864761Y-133754761D01*
X124769523Y-133659523D01*
X124721904Y-133564285D01*
X99115619Y-143279833D02*
X99591809Y-142946500D01*
X99115619Y-142708404D02*
X100115619Y-142708404D01*
X100115619Y-143089357D01*
X100068000Y-143184595D01*
X100020380Y-143232214D01*
X99925142Y-143279833D01*
X99782285Y-143279833D01*
X99687047Y-143232214D01*
X99639428Y-143184595D01*
X99591809Y-143089357D01*
X99591809Y-142708404D01*
X100115619Y-143613166D02*
X100115619Y-144279833D01*
X99115619Y-143851261D01*
X108862857Y-114101642D02*
X108815238Y-114054023D01*
X108767619Y-113911166D01*
X108767619Y-113815928D01*
X108815238Y-113673071D01*
X108910476Y-113577833D01*
X109005714Y-113530214D01*
X109196190Y-113482595D01*
X109339047Y-113482595D01*
X109529523Y-113530214D01*
X109624761Y-113577833D01*
X109720000Y-113673071D01*
X109767619Y-113815928D01*
X109767619Y-113911166D01*
X109720000Y-114054023D01*
X109672380Y-114101642D01*
X109672380Y-114482595D02*
X109720000Y-114530214D01*
X109767619Y-114625452D01*
X109767619Y-114863547D01*
X109720000Y-114958785D01*
X109672380Y-115006404D01*
X109577142Y-115054023D01*
X109481904Y-115054023D01*
X109339047Y-115006404D01*
X108767619Y-114434976D01*
X108767619Y-115054023D01*
X109767619Y-115958785D02*
X109767619Y-115482595D01*
X109291428Y-115434976D01*
X109339047Y-115482595D01*
X109386666Y-115577833D01*
X109386666Y-115815928D01*
X109339047Y-115911166D01*
X109291428Y-115958785D01*
X109196190Y-116006404D01*
X108958095Y-116006404D01*
X108862857Y-115958785D01*
X108815238Y-115911166D01*
X108767619Y-115815928D01*
X108767619Y-115577833D01*
X108815238Y-115482595D01*
X108862857Y-115434976D01*
X124007619Y-136993333D02*
X124483809Y-136660000D01*
X124007619Y-136421904D02*
X125007619Y-136421904D01*
X125007619Y-136802857D01*
X124960000Y-136898095D01*
X124912380Y-136945714D01*
X124817142Y-136993333D01*
X124674285Y-136993333D01*
X124579047Y-136945714D01*
X124531428Y-136898095D01*
X124483809Y-136802857D01*
X124483809Y-136421904D01*
X124912380Y-137374285D02*
X124960000Y-137421904D01*
X125007619Y-137517142D01*
X125007619Y-137755238D01*
X124960000Y-137850476D01*
X124912380Y-137898095D01*
X124817142Y-137945714D01*
X124721904Y-137945714D01*
X124579047Y-137898095D01*
X124007619Y-137326666D01*
X124007619Y-137945714D01*
X108862857Y-110706142D02*
X108815238Y-110658523D01*
X108767619Y-110515666D01*
X108767619Y-110420428D01*
X108815238Y-110277571D01*
X108910476Y-110182333D01*
X109005714Y-110134714D01*
X109196190Y-110087095D01*
X109339047Y-110087095D01*
X109529523Y-110134714D01*
X109624761Y-110182333D01*
X109720000Y-110277571D01*
X109767619Y-110420428D01*
X109767619Y-110515666D01*
X109720000Y-110658523D01*
X109672380Y-110706142D01*
X109672380Y-111087095D02*
X109720000Y-111134714D01*
X109767619Y-111229952D01*
X109767619Y-111468047D01*
X109720000Y-111563285D01*
X109672380Y-111610904D01*
X109577142Y-111658523D01*
X109481904Y-111658523D01*
X109339047Y-111610904D01*
X108767619Y-111039476D01*
X108767619Y-111658523D01*
X109434285Y-112515666D02*
X108767619Y-112515666D01*
X109815238Y-112277571D02*
X109100952Y-112039476D01*
X109100952Y-112658523D01*
X115212857Y-128928833D02*
X115165238Y-128881214D01*
X115117619Y-128738357D01*
X115117619Y-128643119D01*
X115165238Y-128500261D01*
X115260476Y-128405023D01*
X115355714Y-128357404D01*
X115546190Y-128309785D01*
X115689047Y-128309785D01*
X115879523Y-128357404D01*
X115974761Y-128405023D01*
X116070000Y-128500261D01*
X116117619Y-128643119D01*
X116117619Y-128738357D01*
X116070000Y-128881214D01*
X116022380Y-128928833D01*
X115117619Y-129881214D02*
X115117619Y-129309785D01*
X115117619Y-129595500D02*
X116117619Y-129595500D01*
X115974761Y-129500261D01*
X115879523Y-129405023D01*
X115831904Y-129309785D01*
X129087619Y-115562142D02*
X129563809Y-115228809D01*
X129087619Y-114990714D02*
X130087619Y-114990714D01*
X130087619Y-115371666D01*
X130040000Y-115466904D01*
X129992380Y-115514523D01*
X129897142Y-115562142D01*
X129754285Y-115562142D01*
X129659047Y-115514523D01*
X129611428Y-115466904D01*
X129563809Y-115371666D01*
X129563809Y-114990714D01*
X129992380Y-115943095D02*
X130040000Y-115990714D01*
X130087619Y-116085952D01*
X130087619Y-116324047D01*
X130040000Y-116419285D01*
X129992380Y-116466904D01*
X129897142Y-116514523D01*
X129801904Y-116514523D01*
X129659047Y-116466904D01*
X129087619Y-115895476D01*
X129087619Y-116514523D01*
X129992380Y-116895476D02*
X130040000Y-116943095D01*
X130087619Y-117038333D01*
X130087619Y-117276428D01*
X130040000Y-117371666D01*
X129992380Y-117419285D01*
X129897142Y-117466904D01*
X129801904Y-117466904D01*
X129659047Y-117419285D01*
X129087619Y-116847857D01*
X129087619Y-117466904D01*
X125341142Y-147677142D02*
X125293523Y-147724761D01*
X125150666Y-147772380D01*
X125055428Y-147772380D01*
X124912571Y-147724761D01*
X124817333Y-147629523D01*
X124769714Y-147534285D01*
X124722095Y-147343809D01*
X124722095Y-147200952D01*
X124769714Y-147010476D01*
X124817333Y-146915238D01*
X124912571Y-146820000D01*
X125055428Y-146772380D01*
X125150666Y-146772380D01*
X125293523Y-146820000D01*
X125341142Y-146867619D01*
X126293523Y-147772380D02*
X125722095Y-147772380D01*
X126007809Y-147772380D02*
X126007809Y-146772380D01*
X125912571Y-146915238D01*
X125817333Y-147010476D01*
X125722095Y-147058095D01*
X127150666Y-147105714D02*
X127150666Y-147772380D01*
X126912571Y-146724761D02*
X126674476Y-147439047D01*
X127293523Y-147439047D01*
D12*
X109339748Y-120940500D02*
X109862252Y-120940500D01*
X109339748Y-119470500D02*
X109862252Y-119470500D01*
X114200000Y-122577252D02*
X114200000Y-122054748D01*
X115670000Y-122577252D02*
X115670000Y-122054748D01*
X102163752Y-140435000D02*
X101641248Y-140435000D01*
X102163752Y-138965000D02*
X101641248Y-138965000D01*
X112739500Y-126103748D02*
X112739500Y-126626252D01*
X114209500Y-126103748D02*
X114209500Y-126626252D01*
X120015000Y-127695000D02*
X120015000Y-125035000D01*
X120015000Y-127695000D02*
X127695000Y-127695000D01*
X120015000Y-125035000D02*
X127695000Y-125035000D01*
X118745000Y-127695000D02*
X117415000Y-127695000D01*
X117415000Y-127695000D02*
X117415000Y-126365000D01*
X127695000Y-127695000D02*
X127695000Y-125035000D01*
X130870000Y-107890000D02*
X130870000Y-109220000D01*
X128270000Y-107890000D02*
X123130000Y-107890000D01*
X128270000Y-107890000D02*
X128270000Y-110550000D01*
X128270000Y-110550000D02*
X123130000Y-110550000D01*
X129540000Y-107890000D02*
X130870000Y-107890000D01*
X123130000Y-107890000D02*
X123130000Y-110550000D01*
X115870000Y-151260000D02*
X115270000Y-151260000D01*
X116570000Y-149160000D02*
X116570000Y-150560000D01*
X115270000Y-148460000D02*
X115870000Y-148460000D01*
X114570000Y-150560000D02*
X114570000Y-149160000D01*
X115270000Y-148460000D02*
G75*
G03*
X114570000Y-149160000I0J-700000D01*
G01*
X115870000Y-151260000D02*
G75*
G03*
X116570000Y-150560000I1J699999D01*
G01*
X116570000Y-149160000D02*
G75*
G03*
X115870000Y-148460000I-700000J0D01*
G01*
X114570000Y-150560000D02*
G75*
G03*
X115270000Y-151260000I699999J-1D01*
G01*
X112030000Y-150560000D02*
X112030000Y-149160000D01*
X114030000Y-149160000D02*
X114030000Y-150560000D01*
X112730000Y-148460000D02*
X113330000Y-148460000D01*
X113330000Y-151260000D02*
X112730000Y-151260000D01*
X114030000Y-149160000D02*
G75*
G03*
X113330000Y-148460000I-700000J0D01*
G01*
X112030000Y-150560000D02*
G75*
G03*
X112730000Y-151260000I699999J-1D01*
G01*
X113330000Y-151260000D02*
G75*
G03*
X114030000Y-150560000I1J699999D01*
G01*
X112730000Y-148460000D02*
G75*
G03*
X112030000Y-149160000I0J-700000D01*
G01*
X110190000Y-148460000D02*
X110790000Y-148460000D01*
X110790000Y-151260000D02*
X110190000Y-151260000D01*
X109490000Y-150560000D02*
X109490000Y-149160000D01*
X111490000Y-149160000D02*
X111490000Y-150560000D01*
X111490000Y-149160000D02*
G75*
G03*
X110790000Y-148460000I-700000J0D01*
G01*
X109490000Y-150560000D02*
G75*
G03*
X110190000Y-151260000I699999J-1D01*
G01*
X110790000Y-151260000D02*
G75*
G03*
X111490000Y-150560000I1J699999D01*
G01*
X110190000Y-148460000D02*
G75*
G03*
X109490000Y-149160000I0J-700000D01*
G01*
X99665000Y-114370000D02*
X99665000Y-114070000D01*
X99195000Y-109370000D02*
X99665000Y-109370000D01*
X100665000Y-118720000D02*
X100965000Y-118120000D01*
X99665000Y-116570000D02*
X99195000Y-116570000D01*
X99195000Y-111870000D02*
X99665000Y-111870000D01*
X98465000Y-118970000D02*
X98465000Y-106970000D01*
X99665000Y-114070000D02*
X99195000Y-114070000D01*
X103465000Y-106970000D02*
X103465000Y-118970000D01*
X99665000Y-111870000D02*
X99665000Y-111570000D01*
X99665000Y-111570000D02*
X99195000Y-111570000D01*
X99665000Y-109370000D02*
X99665000Y-109070000D01*
X99195000Y-109070000D02*
X99195000Y-109370000D01*
X103465000Y-118970000D02*
X98465000Y-118970000D01*
X99195000Y-114370000D02*
X99665000Y-114370000D01*
X100965000Y-118120000D02*
X101265000Y-118720000D01*
X98465000Y-106970000D02*
X103465000Y-106970000D01*
X99665000Y-109070000D02*
X99195000Y-109070000D01*
X101265000Y-118720000D02*
X100665000Y-118720000D01*
X99665000Y-116870000D02*
X99665000Y-116570000D01*
X99195000Y-116870000D02*
X99665000Y-116870000D01*
X99195000Y-118970000D02*
X99195000Y-106970000D01*
X99195000Y-114070000D02*
X99195000Y-114370000D01*
X99195000Y-116570000D02*
X99195000Y-116870000D01*
X99195000Y-111570000D02*
X99195000Y-111870000D01*
X102810000Y-115570000D02*
X102810000Y-107890000D01*
X105470000Y-116840000D02*
X105470000Y-118170000D01*
X105470000Y-115570000D02*
X105470000Y-107890000D01*
X105470000Y-107890000D02*
X102810000Y-107890000D01*
X105470000Y-118170000D02*
X104140000Y-118170000D01*
X105470000Y-115570000D02*
X102810000Y-115570000D01*
X118019564Y-128424000D02*
X117565436Y-128424000D01*
X118019564Y-129894000D02*
X117565436Y-129894000D01*
X103280000Y-123325000D02*
X103280000Y-124325000D01*
X99920000Y-123325000D02*
X99920000Y-124325000D01*
X103730000Y-123325000D02*
X103730000Y-124325000D01*
X107090000Y-123325000D02*
X107090000Y-124325000D01*
X112680000Y-145445000D02*
X111730000Y-145445000D01*
X121000000Y-135225000D02*
X121950000Y-135225000D01*
X112680000Y-135225000D02*
X111730000Y-135225000D01*
X121950000Y-145445000D02*
X121950000Y-144495000D01*
X121000000Y-145445000D02*
X121950000Y-145445000D01*
X121950000Y-135225000D02*
X121950000Y-136175000D01*
X111730000Y-136175000D02*
X110390000Y-136175000D01*
X111730000Y-145445000D02*
X111730000Y-144495000D01*
X111730000Y-135225000D02*
X111730000Y-136175000D01*
X110299500Y-125639000D02*
X111099500Y-125639000D01*
X110299500Y-122519000D02*
X108499500Y-122519000D01*
X110299500Y-125639000D02*
X109499500Y-125639000D01*
X110299500Y-122519000D02*
X111099500Y-122519000D01*
X119580000Y-115585000D02*
X118290000Y-115585000D01*
X120030000Y-122355000D02*
X119580000Y-122355000D01*
X119580000Y-122355000D02*
X119580000Y-121905000D01*
X126350000Y-122355000D02*
X126800000Y-122355000D01*
X126800000Y-115135000D02*
X126800000Y-115585000D01*
X126350000Y-115135000D02*
X126800000Y-115135000D01*
X120030000Y-115135000D02*
X119580000Y-115135000D01*
X119580000Y-115135000D02*
X119580000Y-115585000D01*
X126800000Y-122355000D02*
X126800000Y-121905000D01*
X104155000Y-138305000D02*
X104155000Y-144705000D01*
X109205000Y-138305000D02*
X109205000Y-144705000D01*
X104155000Y-144705000D02*
G75*
G03*
X109205000Y-144705000I2525000J0D01*
G01*
X109205000Y-138305000D02*
G75*
G03*
X104155000Y-138305000I-2525000J0D01*
G01*
X90170000Y-107890000D02*
X92770000Y-107890000D01*
X87570000Y-109220000D02*
X87570000Y-107890000D01*
X87570000Y-110490000D02*
X90170000Y-110490000D01*
X87570000Y-110490000D02*
X87570000Y-151190000D01*
X92770000Y-107890000D02*
X92770000Y-151190000D01*
X87570000Y-107890000D02*
X88900000Y-107890000D01*
X90170000Y-110490000D02*
X90170000Y-107890000D01*
X87570000Y-151190000D02*
X92770000Y-151190000D01*
X105410000Y-151190000D02*
X104080000Y-151190000D01*
X106680000Y-148530000D02*
X109280000Y-148530000D01*
X104080000Y-151190000D02*
X104080000Y-149860000D01*
X106680000Y-151190000D02*
X109280000Y-151190000D01*
X106680000Y-151190000D02*
X106680000Y-148530000D01*
X109280000Y-151190000D02*
X109280000Y-148530000D01*
X129855000Y-149860000D02*
G75*
G03*
X129855000Y-149860000I-950000J0D01*
G01*
X127315000Y-149860000D02*
G75*
G03*
X127315000Y-149860000I-950000J0D01*
G01*
X122235000Y-149860000D02*
G75*
G03*
X122235000Y-149860000I-950000J0D01*
G01*
X106045000Y-135245000D02*
X107995000Y-135245000D01*
X106045000Y-126375000D02*
X107995000Y-126375000D01*
X106045000Y-135245000D02*
X104095000Y-135245000D01*
X106045000Y-126375000D02*
X102595000Y-126375000D01*
X129855000Y-144780000D02*
G75*
G03*
X129855000Y-144780000I-950000J0D01*
G01*
X117110000Y-150560000D02*
X117110000Y-149160000D01*
X118410000Y-151260000D02*
X117810000Y-151260000D01*
X117810000Y-148460000D02*
X118410000Y-148460000D01*
X119110000Y-149160000D02*
X119110000Y-150560000D01*
X117810000Y-148460000D02*
G75*
G03*
X117110000Y-149160000I0J-700000D01*
G01*
X119110000Y-149160000D02*
G75*
G03*
X118410000Y-148460000I-700000J0D01*
G01*
X118410000Y-151260000D02*
G75*
G03*
X119110000Y-150560000I1J699999D01*
G01*
X117110000Y-150560000D02*
G75*
G03*
X117810000Y-151260000I699999J-1D01*
G01*
X102163752Y-142648000D02*
X101641248Y-142648000D01*
X102163752Y-144118000D02*
X101641248Y-144118000D01*
X99635000Y-119320000D02*
X99635000Y-121980000D01*
X104775000Y-119320000D02*
X99635000Y-119320000D01*
X104775000Y-119320000D02*
X104775000Y-121980000D01*
X107375000Y-119320000D02*
X107375000Y-120650000D01*
X106045000Y-119320000D02*
X107375000Y-119320000D01*
X104775000Y-121980000D02*
X99635000Y-121980000D01*
X124775000Y-149860000D02*
G75*
G03*
X124775000Y-149860000I-950000J0D01*
G01*
X129855000Y-142240000D02*
G75*
G03*
X129855000Y-142240000I-950000J0D01*
G01*
X129855000Y-147320000D02*
G75*
G03*
X129855000Y-147320000I-950000J0D01*
G01*
X113650000Y-109820000D02*
X113650000Y-116220000D01*
X108600000Y-109820000D02*
X108600000Y-116220000D01*
X113650000Y-109820000D02*
G75*
G03*
X108600000Y-109820000I-2525000J0D01*
G01*
X108600000Y-116220000D02*
G75*
G03*
X113650000Y-116220000I2525000J0D01*
G01*
X127575000Y-135890000D02*
X127575000Y-141030000D01*
X127575000Y-134620000D02*
X127575000Y-133290000D01*
X127575000Y-135890000D02*
X130235000Y-135890000D01*
X127575000Y-141030000D02*
X130235000Y-141030000D01*
X127575000Y-133290000D02*
X128905000Y-133290000D01*
X130235000Y-135890000D02*
X130235000Y-141030000D01*
X126782500Y-133122936D02*
X126782500Y-133577064D01*
X125312500Y-133122936D02*
X125312500Y-133577064D01*
X130750000Y-115630000D02*
X133410000Y-115630000D01*
X130750000Y-110490000D02*
X133410000Y-110490000D01*
X130750000Y-107890000D02*
X132080000Y-107890000D01*
X130750000Y-109220000D02*
X130750000Y-107890000D01*
X130750000Y-110490000D02*
X130750000Y-115630000D01*
X133410000Y-110490000D02*
X133410000Y-115630000D01*
X129670000Y-116965000D02*
X130810000Y-116965000D01*
X129670000Y-131955000D02*
X130810000Y-131955000D01*
X129670000Y-116965000D02*
X129670000Y-131955000D01*
X133410000Y-148590000D02*
X133410000Y-133290000D01*
X133410000Y-133290000D02*
X130750000Y-133290000D01*
X133410000Y-151190000D02*
X132080000Y-151190000D01*
X133410000Y-149860000D02*
X133410000Y-151190000D01*
X130750000Y-148590000D02*
X130750000Y-133290000D01*
X133410000Y-148590000D02*
X130750000Y-148590000D01*
X99595000Y-146594564D02*
X99595000Y-146140436D01*
X101065000Y-146594564D02*
X101065000Y-146140436D01*
X101600000Y-151190000D02*
X101600000Y-148530000D01*
X104200000Y-151190000D02*
X104200000Y-148530000D01*
X101600000Y-151190000D02*
X104200000Y-151190000D01*
X101600000Y-148530000D02*
X104200000Y-148530000D01*
X99000000Y-151190000D02*
X99000000Y-149860000D01*
X100330000Y-151190000D02*
X99000000Y-151190000D01*
X106580000Y-115005752D02*
X106580000Y-114483248D01*
X108050000Y-115005752D02*
X108050000Y-114483248D01*
X119955000Y-130235000D02*
X119955000Y-128905000D01*
X121285000Y-130235000D02*
X119955000Y-130235000D01*
X122555000Y-127575000D02*
X127695000Y-127575000D01*
X127695000Y-130235000D02*
X127695000Y-127575000D01*
X122555000Y-130235000D02*
X127695000Y-130235000D01*
X122555000Y-130235000D02*
X122555000Y-127575000D01*
X126782500Y-136932936D02*
X126782500Y-137387064D01*
X125312500Y-136932936D02*
X125312500Y-137387064D01*
X108050000Y-111087748D02*
X108050000Y-111610252D01*
X106580000Y-111087748D02*
X106580000Y-111610252D01*
X116305000Y-126103748D02*
X116305000Y-126626252D01*
X114835000Y-126103748D02*
X114835000Y-126626252D01*
X120330000Y-109220000D02*
G75*
G03*
X120330000Y-109220000I-950000J0D01*
G01*
X127950000Y-111760000D02*
G75*
G03*
X127950000Y-111760000I-950000J0D01*
G01*
X128805000Y-113257064D02*
X128805000Y-112802936D01*
X130275000Y-113257064D02*
X130275000Y-112802936D01*
X122870000Y-109220000D02*
G75*
G03*
X122870000Y-109220000I-950000J0D01*
G01*
X120330000Y-111760000D02*
G75*
G03*
X120330000Y-111760000I-950000J0D01*
G01*
X123136252Y-148055000D02*
X122613748Y-148055000D01*
X123136252Y-146585000D02*
X122613748Y-146585000D01*
X110815828Y-121090870D02*
X111848203Y-122123246D01*
X108581370Y-123325328D02*
X109238979Y-122667718D01*
X108581370Y-123325328D02*
X110108721Y-124852678D01*
X110815828Y-121090870D02*
X110158218Y-121748479D01*
%LPC*%
D13*
X108651000Y-120205500D03*
X110551000Y-120205500D03*
D14*
X114935000Y-123266000D03*
X114935000Y-121366000D03*
D15*
X102852500Y-139700000D03*
X100952500Y-139700000D03*
D16*
X113474500Y-125415000D03*
X113474500Y-127315000D03*
D17*
X118745000Y-126365000D03*
D18*
X121285000Y-126365000D03*
X123825000Y-126365000D03*
X126365000Y-126365000D03*
D17*
X129540000Y-109220000D03*
D18*
X127000000Y-109220000D03*
X124460000Y-109220000D03*
D19*
X115570000Y-150510000D03*
D20*
X115570000Y-149210000D03*
D19*
X113030000Y-150510000D03*
D20*
X113030000Y-149210000D03*
D19*
X110490000Y-150510000D03*
D20*
X110490000Y-149210000D03*
D21*
X100965000Y-116720000D03*
D22*
X100965000Y-114220000D03*
X100965000Y-111720000D03*
X100965000Y-109220000D03*
D17*
X104140000Y-116840000D03*
D18*
X104140000Y-114300000D03*
X104140000Y-111760000D03*
X104140000Y-109220000D03*
D23*
X118705000Y-129159000D03*
X116880000Y-129159000D03*
D24*
X100400000Y-124725000D03*
D25*
X101200000Y-124725000D03*
X102000000Y-124725000D03*
D24*
X102800000Y-124725000D03*
X102800000Y-122925000D03*
D25*
X102000000Y-122925000D03*
X101200000Y-122925000D03*
D24*
X100400000Y-122925000D03*
X104210000Y-124725000D03*
D25*
X105010000Y-124725000D03*
X105810000Y-124725000D03*
D24*
X106610000Y-124725000D03*
X106610000Y-122925000D03*
D25*
X105810000Y-122925000D03*
X105010000Y-122925000D03*
D24*
X104210000Y-122925000D03*
D26*
X111165000Y-136585000D03*
X111165000Y-137085000D03*
X111165000Y-137585000D03*
X111165000Y-138085000D03*
X111165000Y-138585000D03*
X111165000Y-139085000D03*
X111165000Y-139585000D03*
X111165000Y-140085000D03*
X111165000Y-140585000D03*
X111165000Y-141085000D03*
X111165000Y-141585000D03*
X111165000Y-142085000D03*
X111165000Y-142585000D03*
X111165000Y-143085000D03*
X111165000Y-143585000D03*
X111165000Y-144085000D03*
D27*
X113090000Y-146010000D03*
X113590000Y-146010000D03*
X114090000Y-146010000D03*
X114590000Y-146010000D03*
X115090000Y-146010000D03*
X115590000Y-146010000D03*
X116090000Y-146010000D03*
X116590000Y-146010000D03*
X117090000Y-146010000D03*
X117590000Y-146010000D03*
X118090000Y-146010000D03*
X118590000Y-146010000D03*
X119090000Y-146010000D03*
X119590000Y-146010000D03*
X120090000Y-146010000D03*
X120590000Y-146010000D03*
D26*
X122515000Y-144085000D03*
X122515000Y-143585000D03*
X122515000Y-143085000D03*
X122515000Y-142585000D03*
X122515000Y-142085000D03*
X122515000Y-141585000D03*
X122515000Y-141085000D03*
X122515000Y-140585000D03*
X122515000Y-140085000D03*
X122515000Y-139585000D03*
X122515000Y-139085000D03*
X122515000Y-138585000D03*
X122515000Y-138085000D03*
X122515000Y-137585000D03*
X122515000Y-137085000D03*
X122515000Y-136585000D03*
D27*
X120590000Y-134660000D03*
X120090000Y-134660000D03*
X119590000Y-134660000D03*
X119090000Y-134660000D03*
X118590000Y-134660000D03*
X118090000Y-134660000D03*
X117590000Y-134660000D03*
X117090000Y-134660000D03*
X116590000Y-134660000D03*
X116090000Y-134660000D03*
X115590000Y-134660000D03*
X115090000Y-134660000D03*
X114590000Y-134660000D03*
X114090000Y-134660000D03*
X113590000Y-134660000D03*
X113090000Y-134660000D03*
D28*
X109162000Y-123129000D03*
X109162000Y-124079000D03*
X109162000Y-125029000D03*
X111437000Y-125029000D03*
X111437000Y-123129000D03*
D29*
X119027500Y-115995000D03*
X119027500Y-116495000D03*
X119027500Y-116995000D03*
X119027500Y-117495000D03*
X119027500Y-117995000D03*
X119027500Y-118495000D03*
X119027500Y-118995000D03*
X119027500Y-119495000D03*
X119027500Y-119995000D03*
X119027500Y-120495000D03*
X119027500Y-120995000D03*
X119027500Y-121495000D03*
D30*
X120440000Y-122907500D03*
X120940000Y-122907500D03*
X121440000Y-122907500D03*
X121940000Y-122907500D03*
X122440000Y-122907500D03*
X122940000Y-122907500D03*
X123440000Y-122907500D03*
X123940000Y-122907500D03*
X124440000Y-122907500D03*
X124940000Y-122907500D03*
X125440000Y-122907500D03*
X125940000Y-122907500D03*
D29*
X127352500Y-121495000D03*
X127352500Y-120995000D03*
X127352500Y-120495000D03*
X127352500Y-119995000D03*
X127352500Y-119495000D03*
X127352500Y-118995000D03*
X127352500Y-118495000D03*
X127352500Y-117995000D03*
X127352500Y-117495000D03*
X127352500Y-116995000D03*
X127352500Y-116495000D03*
X127352500Y-115995000D03*
D30*
X125940000Y-114582500D03*
X125440000Y-114582500D03*
X124940000Y-114582500D03*
X124440000Y-114582500D03*
X123940000Y-114582500D03*
X123440000Y-114582500D03*
X122940000Y-114582500D03*
X122440000Y-114582500D03*
X121940000Y-114582500D03*
X121440000Y-114582500D03*
X120940000Y-114582500D03*
X120440000Y-114582500D03*
D31*
X106680000Y-139065000D03*
X106680000Y-143945000D03*
D17*
X88900000Y-109220000D03*
D18*
X91440000Y-109220000D03*
X88900000Y-111760000D03*
X91440000Y-111760000D03*
X88900000Y-114300000D03*
X91440000Y-114300000D03*
X88900000Y-116840000D03*
X91440000Y-116840000D03*
X88900000Y-119380000D03*
X91440000Y-119380000D03*
X88900000Y-121920000D03*
X91440000Y-121920000D03*
X88900000Y-124460000D03*
X91440000Y-124460000D03*
X88900000Y-127000000D03*
X91440000Y-127000000D03*
X88900000Y-129540000D03*
X91440000Y-129540000D03*
X88900000Y-132080000D03*
X91440000Y-132080000D03*
X88900000Y-134620000D03*
X91440000Y-134620000D03*
X88900000Y-137160000D03*
X91440000Y-137160000D03*
X88900000Y-139700000D03*
X91440000Y-139700000D03*
X88900000Y-142240000D03*
X91440000Y-142240000D03*
X88900000Y-144780000D03*
X91440000Y-144780000D03*
X88900000Y-147320000D03*
X91440000Y-147320000D03*
X88900000Y-149860000D03*
X91440000Y-149860000D03*
D17*
X105410000Y-149860000D03*
D18*
X107950000Y-149860000D03*
D32*
X128905000Y-149860000D03*
X126365000Y-149860000D03*
X121285000Y-149860000D03*
D33*
X103570000Y-127000000D03*
X103570000Y-128270000D03*
X103570000Y-129540000D03*
X103570000Y-130810000D03*
X103570000Y-132080000D03*
X103570000Y-133350000D03*
X103570000Y-134620000D03*
X108520000Y-134620000D03*
X108520000Y-133350000D03*
X108520000Y-132080000D03*
X108520000Y-130810000D03*
X108520000Y-129540000D03*
X108520000Y-128270000D03*
X108520000Y-127000000D03*
D32*
X128905000Y-144780000D03*
D19*
X118110000Y-150510000D03*
D20*
X118110000Y-149210000D03*
D15*
X102852500Y-143383000D03*
X100952500Y-143383000D03*
D17*
X106045000Y-120650000D03*
D18*
X103505000Y-120650000D03*
X100965000Y-120650000D03*
D32*
X123825000Y-149860000D03*
X128905000Y-142240000D03*
X128905000Y-147320000D03*
D31*
X111125000Y-110580000D03*
X111125000Y-115460000D03*
D17*
X128905000Y-134620000D03*
D18*
X128905000Y-137160000D03*
X128905000Y-139700000D03*
D34*
X126047500Y-132437500D03*
X126047500Y-134262500D03*
D17*
X132080000Y-109220000D03*
D18*
X132080000Y-111760000D03*
X132080000Y-114300000D03*
D31*
X130810000Y-127960000D03*
X130810000Y-125460000D03*
X130810000Y-123460000D03*
X130810000Y-120960000D03*
D35*
X132260000Y-131030000D03*
X132260000Y-117890000D03*
D17*
X132080000Y-149860000D03*
D18*
X132080000Y-147320000D03*
X132080000Y-144780000D03*
X132080000Y-142240000D03*
X132080000Y-139700000D03*
X132080000Y-137160000D03*
X132080000Y-134620000D03*
D36*
X100330000Y-147280000D03*
X100330000Y-145455000D03*
D17*
X100330000Y-149860000D03*
D18*
X102870000Y-149860000D03*
D14*
X107315000Y-115694500D03*
X107315000Y-113794500D03*
D17*
X121285000Y-128905000D03*
D18*
X123825000Y-128905000D03*
X126365000Y-128905000D03*
D34*
X126047500Y-136247500D03*
X126047500Y-138072500D03*
D16*
X107315000Y-110399000D03*
X107315000Y-112299000D03*
X115570000Y-125415000D03*
X115570000Y-127315000D03*
D32*
X119380000Y-109220000D03*
X127000000Y-111760000D03*
D36*
X129540000Y-113942500D03*
X129540000Y-112117500D03*
D32*
X121920000Y-109220000D03*
X119380000Y-111760000D03*
D15*
X123825000Y-147320000D03*
X121925000Y-147320000D03*
D37*
X110271355Y-124124358D03*
X111614858Y-122780855D03*
X109528893Y-122038393D03*
D17*
X94615000Y-109220000D03*
D18*
X97155000Y-109220000D03*
X94615000Y-111760000D03*
X97155000Y-111760000D03*
X94615000Y-114300000D03*
X97155000Y-114300000D03*
X94615000Y-116840000D03*
X97155000Y-116840000D03*
X94615000Y-119380000D03*
X97155000Y-119380000D03*
X94615000Y-121920000D03*
X97155000Y-121920000D03*
X94615000Y-124460000D03*
X97155000Y-124460000D03*
X94615000Y-127000000D03*
X97155000Y-127000000D03*
X94615000Y-129540000D03*
X97155000Y-129540000D03*
X94615000Y-132080000D03*
X97155000Y-132080000D03*
X94615000Y-134620000D03*
X97155000Y-134620000D03*
X94615000Y-137160000D03*
X97155000Y-137160000D03*
X94615000Y-139700000D03*
X97155000Y-139700000D03*
X94615000Y-142240000D03*
X97155000Y-142240000D03*
X94615000Y-144780000D03*
X97155000Y-144780000D03*
X94615000Y-147320000D03*
X97155000Y-147320000D03*
X94615000Y-149860000D03*
X97155000Y-149860000D03*
D17*
X116205000Y-109230000D03*
D18*
X116205000Y-111770000D03*
X116205000Y-114310000D03*
X116205000Y-116850000D03*
M02*
